<?xml version="1.0" encoding="utf-8"?>
<!-- Generator: Adobe Illustrator 27.5.0, SVG Export Plug-In . SVG Version: 6.00 Build 0)  -->
<svg version="1.1" xmlns="http://www.w3.org/2000/svg" xmlns:xlink="http://www.w3.org/1999/xlink" x="0px" y="0px"
	 viewBox="0 0 500 500" style="enable-background:new 0 0 500 500;" xml:space="preserve">
<g id="Background_Simple">
	<g>
		<path style="fill:#92E3A9;" d="M333.748,36.368c-7.333,4.927-14.59,9.97-23.037,12.313c-26.563,7.366-53.737-11.089-77.549-20.41
			C162.611,0.657,80.746,37.056,41.026,98.951c-30.502,47.531,20.981,94.666-2.175,143.999
			c-19.976,42.557-25.187,105.958,26.055,145.909c51.242,39.951,85.114,44.294,143.304,17.37
			c58.19-26.924,102.484,5.211,158.068,14.765c55.584,9.554,101.615-26.055,110.3-70.349c9.059-46.198-26.289-87.246-25.766-133.105
			c0.27-23.743,13.128-45.691,18.665-68.483c6.032-24.829,7.795-52.362-5.91-75.086c-23.876-39.587-76.24-68.592-120.346-43.598
			C339.985,32.208,336.859,34.277,333.748,36.368z"/>
		<path style="opacity:0.7;fill:#FFFFFF;" d="M333.748,36.368c-7.333,4.927-14.59,9.97-23.037,12.313
			c-26.563,7.366-53.737-11.089-77.549-20.41C162.611,0.657,80.746,37.056,41.026,98.951
			c-30.502,47.531,20.981,94.666-2.175,143.999c-19.976,42.557-25.187,105.958,26.055,145.909
			c51.242,39.951,85.114,44.294,143.304,17.37c58.19-26.924,102.484,5.211,158.068,14.765c55.584,9.554,101.615-26.055,110.3-70.349
			c9.059-46.198-26.289-87.246-25.766-133.105c0.27-23.743,13.128-45.691,18.665-68.483c6.032-24.829,7.795-52.362-5.91-75.086
			c-23.876-39.587-76.24-68.592-120.346-43.598C339.985,32.208,336.859,34.277,333.748,36.368z"/>
	</g>
</g>
<g id="Floor">
	<ellipse style="fill:#92E3A9;" cx="256.5" cy="468.5" rx="159.5" ry="14.5"/>
</g>
<g id="Food_2">
	<g>
		<path style="fill:none;stroke:#263238;stroke-linecap:round;stroke-linejoin:round;stroke-miterlimit:10;" d="M399.794,156.695
			c0,0,2.305,4.722,1.373,6.778c-0.932,2.057-2.776,14.986,6.375,21.486c9.151,6.5,17.994,1.233,22.316-1.51
			c4.322-2.743,5.578-2.686,6.159-1.611c0.581,1.076-37.084,30.775-38.998,31.319c-1.914,0.543-6.322,0.554-13.729-2.719
			c-7.408-3.273-15.302-9.717-15.388-12.449c-0.086-2.732-1.735-8.054-0.821-9.692c0.914-1.638,28.914-35.762,28.914-35.762
			S398.051,153.468,399.794,156.695z"/>
		
			<line style="fill:none;stroke:#263238;stroke-width:0.5;stroke-linecap:round;stroke-linejoin:round;stroke-miterlimit:10;" x1="367.902" y1="197.99" x2="386.261" y2="177.491"/>
		
			<line style="fill:none;stroke:#263238;stroke-width:0.5;stroke-linecap:round;stroke-linejoin:round;stroke-miterlimit:10;" x1="388.232" y1="175.691" x2="395.313" y2="167.616"/>
		<path style="fill:none;stroke:#263238;stroke-linecap:round;stroke-linejoin:round;stroke-miterlimit:10;" d="M395.995,152.536
			l11.163-19.434c0,0,3.37-0.268,3.97,0.389c0.6,0.657,0.467,3.589,0.467,3.589l-11.801,19.615"/>
		
			<polyline style="fill:none;stroke:#263238;stroke-width:0.5;stroke-linecap:round;stroke-linejoin:round;stroke-miterlimit:10;" points="
			397.945,153.668 408.863,136.39 411.595,137.08 		"/>
		<path style="fill:none;stroke:#263238;stroke-linecap:round;stroke-linejoin:round;stroke-miterlimit:10;" d="M403.904,149.988
			c0,0,9.629-12.071,10.865-13.2c1.236-1.129,3.38,0.943,3.38,0.943s0.532,2.788-0.292,3.541
			c-0.824,0.753-14.847,16.837-16.28,19.405c0,0,18.197-18.134,19.044-19.412c0.848-1.278,2.185-1.744,3.326-0.771
			c1.141,0.973,1.697,3.236,0.724,4.377c-0.973,1.141-16.286,16.64-19.044,19.412c-2.758,2.771-5.05,6.88-5.05,6.88"/>
		<path style="fill:none;stroke:#263238;stroke-linecap:round;stroke-linejoin:round;stroke-miterlimit:10;" d="M411.801,135.469
			c0,0,3.026-5.787,3.975-6.402c0.949-0.615,3.177-0.383,2.98,1.056c-0.197,1.439-3.987,6.665-3.987,6.665"/>
		
			<line style="fill:none;stroke:#263238;stroke-linecap:round;stroke-linejoin:round;stroke-miterlimit:10;" x1="416.511" y1="153.586" x2="403.212" y2="179.839"/>
		
			<line style="fill:none;stroke:#263238;stroke-linecap:round;stroke-linejoin:round;stroke-miterlimit:10;" x1="422.612" y1="146.753" x2="406.325" y2="183.798"/>
		
			<line style="fill:none;stroke:#263238;stroke-linecap:round;stroke-linejoin:round;stroke-miterlimit:10;" x1="401.575" y1="175.29" x2="409.438" y2="167.352"/>
		<path style="fill:none;stroke:#263238;stroke-linecap:round;stroke-linejoin:round;stroke-miterlimit:10;" d="M425.405,143.193
			c0,0,4.626-6.241,5.504-5.28c0.878,0.961,4.521,1.916,3.148,3.17c-1.373,1.254-9.421,10.369-13.55,20.187
			c-4.13,9.818-7.192,16.394-7.192,16.394"/>
		<path style="fill:none;stroke:#263238;stroke-linecap:round;stroke-linejoin:round;stroke-miterlimit:10;" d="M407.793,180.442
			c0,0,10.885-4.905,13.207-6.775c2.322-1.87,21.619-15.215,22.431-15.705c0.812-0.49,2.759,3.021,2.849,3.947
			c0.09,0.926-1.629,4.007-2.943,3.948c-1.314-0.059-21.799,13.363-23.835,14.719c-2.036,1.356-7.625,2.683-8.974,3.412
			c-1.35,0.729-2.987,0.972-2.987,0.972"/>
		<path style="fill:none;stroke:#263238;stroke-linecap:round;stroke-linejoin:round;stroke-miterlimit:10;" d="M428.447,174.925
			c0,0-4.513,6.641-6.22,9.46c-1.707,2.819-2.143,3.721-2.143,3.721"/>
		
			<line style="fill:none;stroke:#263238;stroke-linecap:round;stroke-linejoin:round;stroke-miterlimit:10;" x1="417.33" y1="182.057" x2="413.915" y2="187.695"/>
		<path style="fill:none;stroke:#263238;stroke-linecap:round;stroke-linejoin:round;stroke-miterlimit:10;" d="M436.911,162.406
			c0,0,4.614-5.979,7.271-9.413c2.656-3.434-1.1-4.789-2.904-5.66c-1.804-0.871-2.531,3.572-6.996,9.162
			c-4.465,5.59-10.972,15.564-10.972,15.564"/>
		
			<line style="fill:none;stroke:#263238;stroke-linecap:round;stroke-linejoin:round;stroke-miterlimit:10;" x1="418.03" y1="166.555" x2="434.282" y2="156.495"/>
		<path style="fill:none;stroke:#263238;stroke-linecap:round;stroke-linejoin:round;stroke-miterlimit:10;" d="M442.344,158.703
			c0,0,5.994-4.468,7.367-5.723c1.373-1.254-1.285-3.612-1.661-4.024c-0.376-0.412-3.248,1.959-3.248,1.959"/>
		<path style="fill:none;stroke:#263238;stroke-linecap:round;stroke-linejoin:round;stroke-miterlimit:10;" d="M422.102,163.843
			c0.793-2.992,10.26-20.204,10.797-20.443c0.538-0.239,2.639-0.144,3.768,1.092c1.129,1.236-1.194,3.105-2.501,5.811
			c-1.307,2.705-5.032,9.382-5.032,9.382"/>
		<path style="fill:none;stroke:#263238;stroke-linecap:round;stroke-linejoin:round;stroke-miterlimit:10;" d="M435.355,170.63
			l9.978-2.313c0,0,1.846,2.848,0.861,4.251c-0.985,1.404-20.851,6.956-20.851,6.956"/>
		
			<line style="fill:none;stroke:#263238;stroke-linecap:round;stroke-linejoin:round;stroke-miterlimit:10;" x1="426.658" y1="185.375" x2="434.407" y2="177.037"/>
		<path style="fill:none;stroke:#263238;stroke-width:0.5;stroke-linecap:round;stroke-linejoin:round;stroke-miterlimit:10;" d="
			M417.857,141.272l-2.639,0.144c0,0-13.779,13.594-14.859,17.1"/>
		<path style="fill:none;stroke:#263238;stroke-width:0.5;stroke-linecap:round;stroke-linejoin:round;stroke-miterlimit:10;" d="
			M421.697,140.788c0,0,0.078,1.188,0.144,2.639c0.066,1.451-17.856,19.334-18.829,20.475c-0.973,1.141-2.657,3.434-2.657,3.434"/>
		<path style="fill:none;stroke:#263238;stroke-width:0.5;stroke-linecap:round;stroke-linejoin:round;stroke-miterlimit:10;" d="
			M431.501,139.388c0,0-10.943,12.011-11.677,13.689"/>
		
			<line style="fill:none;stroke:#263238;stroke-width:0.5;stroke-linecap:round;stroke-linejoin:round;stroke-miterlimit:10;" x1="416.443" y1="172.539" x2="427.411" y2="165.795"/>
		<path style="fill:none;stroke:#263238;stroke-width:0.5;stroke-linecap:round;stroke-linejoin:round;stroke-miterlimit:10;" d="
			M445.641,161.485c0,0-4.221,3.1-10.878,7.67s-17.715,10.389-19.715,10.957c-2,0.568-7.738,2.283-7.738,2.283"/>
		<path style="fill:none;stroke:#263238;stroke-width:0.5;stroke-linecap:round;stroke-linejoin:round;stroke-miterlimit:10;" d="
			M445.9,170.316c0,0-7.1,2.707-12.038,4.195c-4.938,1.488-7.099,2.707-7.099,2.707"/>
		<path style="fill:none;stroke:#263238;stroke-width:0.5;stroke-linecap:round;stroke-linejoin:round;stroke-miterlimit:10;" d="
			M441.279,147.333c0,0,2.156,1.809,1.171,3.212c-0.985,1.403-13.169,17.571-13.169,17.571"/>
		<path style="fill:none;stroke:#263238;stroke-width:0.5;stroke-linecap:round;stroke-linejoin:round;stroke-miterlimit:10;" d="
			M434.739,143.483c0,0-9.741,17.463-9.938,18.902"/>
	</g>
	<g>
		<path style="fill:none;stroke:#263238;stroke-linecap:round;stroke-linejoin:round;stroke-miterlimit:10;" d="M416.115,279.171
			c-2.946-2.827-6.364-4.729-9.929-4.574c-3.734,0.162-6.872,2.965-6.872,2.965s-4.33-2.479-8.89-0.873
			c-4.56,1.605-6.584,4.471-6.584,4.471s-5.528-1.056-8.995,0.983c-3.467,2.04-4.398,5.339-4.398,5.339s-7.096,0.345-10.647,3.87
			c-3.551,3.525-4.419,5.711-4.419,5.711s-0.973,4.042,1.809,7.551c2.782,3.509,5.073,2.521,8.618,5.7
			c3.546,3.18,14.329,10.119,27.915,20.197c13.586,10.077,26.702,15.286,32.967,23.089c6.265,7.803,9.894,9.497,14.203,12.347
			c4.309,2.85,5.162-5.669,2.793-9.899c-2.369-4.231,2.196-12.54-4.638-30.059c-6.835-17.519-12.974-27.549-13.881-31.332
			C424.061,290.056,420.647,283.52,416.115,279.171z"/>
		<path style="fill:none;stroke:#263238;stroke-linecap:round;stroke-linejoin:round;stroke-miterlimit:10;" d="M355.382,297.062
			c0,0,1.49-6.621,10.213-2.777c8.723,3.844,6.903,9.701,9.664,13.581c2.761,3.88,16.269,8.739,20.411,14.559
			c4.142,5.82,13.205,11.887,16.793,14.324c3.587,2.437,14.108,12.373,17.717,14.439c3.608,2.066,7.483,6.009,8.843,8.32
			c1.36,2.311,1.935,5.324,3.112,4.273c1.177-1.051,1.553-7.735,1.553-7.735"/>
		<path style="fill:none;stroke:#263238;stroke-linecap:round;stroke-linejoin:round;stroke-miterlimit:10;" d="M374.192,300.357
			c0,0-0.246-2.249,7.285-3.687c7.53-1.438,8.195-6.615,12.012-8.263c3.818-1.647,11.573-0.465,13.801-0.34
			c2.228,0.125,4.889-0.842,6.024-1.151c1.135-0.309,5.598-3.649,5.598-3.649"/>
		<path style="fill:none;stroke:#263238;stroke-linecap:round;stroke-linejoin:round;stroke-miterlimit:10;" d="M392.769,299.659
			c-2.393,0.876-4.175,2.493-4.507,5.056c-0.635,4.907,7.228,10.542,11.643,8.637c2.291-0.988,10.569-9.089,8.094-11.465
			C405.189,299.191,397.688,297.859,392.769,299.659z"/>
		<path style="fill:none;stroke:#263238;stroke-linecap:round;stroke-linejoin:round;stroke-miterlimit:10;" d="M420.789,312.872
			c-1.813-0.132-3.663,0.051-4.976,0.277c-1.922,0.331-4.577,0.615-4.837,2.827c-0.298,2.533,3.966,4.928,6.003,5.043
			c2.599,0.146,10.15-1.663,9.905-3.912C426.558,314.116,423.721,313.084,420.789,312.872z"/>
		<path style="fill:none;stroke:#263238;stroke-linecap:round;stroke-linejoin:round;stroke-miterlimit:10;" d="M419.639,300.355
			c-2.328,0.172-4.169,1.211-2.769,2.779c2.803,3.137,8.456,1.966,8.54,0.479C425.548,301.081,422.281,300.16,419.639,300.355z"/>
		<path style="fill:none;stroke:#263238;stroke-linecap:round;stroke-linejoin:round;stroke-miterlimit:10;" d="M423.392,331.908
			c-2.199-0.366-4.321,0.628-3.866,3.408c0.554,3.381,6.772,5.221,7.628,3.414C428.965,334.908,426.12,332.362,423.392,331.908z"/>
		<path style="fill:none;stroke:#263238;stroke-width:0.5;stroke-linecap:round;stroke-linejoin:round;stroke-miterlimit:10;" d="
			M370.448,287.482c0,0,8.728-2.861,11.714,3.64"/>
		<path style="fill:none;stroke:#263238;stroke-width:0.5;stroke-linecap:round;stroke-linejoin:round;stroke-miterlimit:10;" d="
			M387.82,283.246c0,0,4.393,1.365,5.031,3.263"/>
		<path style="fill:none;stroke:#263238;stroke-width:0.5;stroke-linecap:round;stroke-linejoin:round;stroke-miterlimit:10;" d="
			M398.902,278.283c0,0,4.393,1.365,5.031,3.263"/>
		<path style="fill:none;stroke:#263238;stroke-width:0.5;stroke-linecap:round;stroke-linejoin:round;stroke-miterlimit:10;" d="
			M370.082,307.202c0,0-6.035-11.887-8.78-9.434c-2.746,2.453-2.108,4.351,1.501,6.417c3.608,2.066,9.711,6.134,11.526,6.982
			C376.143,312.013,370.082,307.202,370.082,307.202z"/>
	</g>
	<g>
		<path style="fill:none;stroke:#263238;stroke-linecap:round;stroke-linejoin:round;stroke-miterlimit:10;" d="M424.605,64.466
			c0,22.278-16.561,19.335-36.989,19.335c-20.429,0-36.989,4.203-36.989-19.335c0-13.696,16.561-24.8,36.989-24.8
			C408.044,39.667,424.605,50.77,424.605,64.466z"/>
		<path style="fill:none;stroke:#263238;stroke-linecap:round;stroke-linejoin:round;stroke-miterlimit:10;" d="M424.447,106.15
			c0.104,0.839,0.158,1.738,0.158,2.701c0,9.875-16.561,14.099-36.989,14.099c-20.429,0-36.989-4.223-36.989-14.099
			c0-1.712-0.105-2.319,0.256-3.643"/>
		<path style="fill:none;stroke:#263238;stroke-linecap:round;stroke-linejoin:round;stroke-miterlimit:10;" d="M424.527,69.66
			c0,0,1.482,2.964,3.556,6.223c2.074,3.26-1.778,3.556-4.149,7.112c-2.371,3.556-0.593,5.927-6.816,5.334
			c-6.223-0.593-5.927-3.852-9.483-1.778c-3.556,2.074-6.816,5.038-10.668,2.667c-3.852-2.371-5.927-2.667-8.594-0.889
			c-2.667,1.778-5.927,4.445-10.372,1.482c-4.445-2.963-5.927-2.074-9.779,1.185c-3.853,3.26-8.298,1.482-9.483-2.667
			c-1.185-4.149-2.371-2.371-5.927-5.334c-3.556-2.963-0.296-6.52-0.296-6.52"/>
		<path style="fill:none;stroke:#263238;stroke-width:0.5;stroke-linecap:round;stroke-linejoin:round;stroke-miterlimit:10;" d="
			M385.655,51.538c0,0-1.249,1.433-2.79,1.433c-1.541,0-2.79-1.433-2.79-1.433s1.249-1.433,2.79-1.433
			C384.406,50.105,385.655,51.538,385.655,51.538z"/>
		<path style="fill:none;stroke:#263238;stroke-width:0.5;stroke-linecap:round;stroke-linejoin:round;stroke-miterlimit:10;" d="
			M397.72,48.069c0,0-1.249,1.433-2.79,1.433s-2.79-1.433-2.79-1.433s1.249-1.433,2.79-1.433S397.72,48.069,397.72,48.069z"/>
		<path style="fill:none;stroke:#263238;stroke-width:0.5;stroke-linecap:round;stroke-linejoin:round;stroke-miterlimit:10;" d="
			M405.864,46.41c0,0-1.249,1.433-2.79,1.433c-1.541,0-2.79-1.433-2.79-1.433s1.249-1.433,2.79-1.433
			C404.615,44.977,405.864,46.41,405.864,46.41z"/>
		<path style="fill:none;stroke:#263238;stroke-width:0.5;stroke-linecap:round;stroke-linejoin:round;stroke-miterlimit:10;" d="
			M374.721,48.069c0,0-1.249,1.433-2.79,1.433s-2.79-1.433-2.79-1.433s1.249-1.433,2.79-1.433S374.721,48.069,374.721,48.069z"/>
		<path style="fill:none;stroke:#263238;stroke-width:0.5;stroke-linecap:round;stroke-linejoin:round;stroke-miterlimit:10;" d="
			M368.915,54.102c0,0-1.249,1.433-2.79,1.433s-2.79-1.433-2.79-1.433s1.249-1.433,2.79-1.433S368.915,54.102,368.915,54.102z"/>
		<path style="fill:none;stroke:#263238;stroke-width:0.5;stroke-linecap:round;stroke-linejoin:round;stroke-miterlimit:10;" d="
			M380.603,56.892c0,0-1.249,1.433-2.79,1.433c-1.541,0-2.79-1.433-2.79-1.433s1.249-1.433,2.79-1.433
			C379.354,55.459,380.603,56.892,380.603,56.892z"/>
		<path style="fill:none;stroke:#263238;stroke-width:0.5;stroke-linecap:round;stroke-linejoin:round;stroke-miterlimit:10;" d="
			M361.751,58.4c0,0-1.249,1.433-2.79,1.433c-1.541,0-2.79-1.433-2.79-1.433s1.249-1.433,2.79-1.433
			C360.502,56.967,361.751,58.4,361.751,58.4z"/>
		<path style="fill:none;stroke:#263238;stroke-width:0.5;stroke-linecap:round;stroke-linejoin:round;stroke-miterlimit:10;" d="
			M386.334,45.128c0,0-1.249,1.433-2.79,1.433c-1.541,0-2.79-1.433-2.79-1.433s1.249-1.433,2.79-1.433
			C385.085,43.695,386.334,45.128,386.334,45.128z"/>
		<path style="fill:none;stroke:#263238;stroke-width:0.5;stroke-linecap:round;stroke-linejoin:round;stroke-miterlimit:10;" d="
			M405.638,51.915c0,0-1.249,1.433-2.79,1.433s-2.79-1.433-2.79-1.433s1.249-1.433,2.79-1.433S405.638,51.915,405.638,51.915z"/>
		<path style="fill:none;stroke:#263238;stroke-width:0.5;stroke-linecap:round;stroke-linejoin:round;stroke-miterlimit:10;" d="
			M411.822,55.685c0,0-1.249,1.433-2.79,1.433c-1.541,0-2.79-1.433-2.79-1.433s1.249-1.433,2.79-1.433
			C410.572,54.252,411.822,55.685,411.822,55.685z"/>
		<path style="fill:none;stroke:#263238;stroke-width:0.5;stroke-linecap:round;stroke-linejoin:round;stroke-miterlimit:10;" d="
			M395.081,55.76c0,0-1.249,1.433-2.79,1.433c-1.541,0-2.79-1.433-2.79-1.433s1.249-1.433,2.79-1.433
			C393.832,54.328,395.081,55.76,395.081,55.76z"/>
		<path style="fill:none;stroke:#263238;stroke-linecap:round;stroke-linejoin:round;stroke-miterlimit:10;" d="M368.221,90.997
			c0,0,1.732,8.124,11.424,9.306s17.171-6.163,15.989-11.837"/>
		<path style="fill:none;stroke:#263238;stroke-linecap:round;stroke-linejoin:round;stroke-miterlimit:10;" d="M370.19,90.137
			c0,0,3.546,3.782,4.964,4.019c1.418,0.236,3.494-3.909,3.494-3.909"/>
		<path style="fill:none;stroke:#263238;stroke-linecap:round;stroke-linejoin:round;stroke-miterlimit:10;" d="M380.119,90.877
			c0,0-0.71,3.988,0.235,4.933c0.945,0.946,4.728,1.891,6.619,0.473c1.891-1.418-1.655-5.91-1.655-5.91"/>
		<path style="fill:none;stroke:#263238;stroke-linecap:round;stroke-linejoin:round;stroke-miterlimit:10;" d="M387.289,89.189
			c0,0,1.576,3.785,3.23,3.785c1.655,0,3.87-4.003,2.688-5.658"/>
		<path style="fill:none;stroke:#263238;stroke-linecap:round;stroke-linejoin:round;stroke-miterlimit:10;" d="M407.635,86.552
			c0,0,2.742,5.713,10.779,6.659c8.037,0.946,4.728-8.274,4.728-8.274"/>
		<path style="fill:none;stroke:#263238;stroke-linecap:round;stroke-linejoin:round;stroke-miterlimit:10;" d="M412.268,87.3
			c0,0,3.073,2.6,6.146,3.073c3.073,0.473,2.6-2.6,2.6-2.6"/>
		<path style="fill:none;stroke:#263238;stroke-linecap:round;stroke-linejoin:round;stroke-miterlimit:10;" d="M352.811,82.995
			c0,0-4.37,1.705-1.77,5.96c2.6,4.255,6.383,4.019,8.747,4.019c2.364,0,6.146,1.655,7.565,1.655s3.032,0.504,3.032,0.504"/>
		<path style="fill:none;stroke:#263238;stroke-linecap:round;stroke-linejoin:round;stroke-miterlimit:10;" d="M420.407,93.18
			c0,0-2.938,1.921-6.011,2.157c-3.073,0.236-8.983,0.473-13.711,0.473c-4.728,0-8.465,1.065-8.465,1.065"/>
		<path style="fill:none;stroke:#263238;stroke-linecap:round;stroke-linejoin:round;stroke-miterlimit:10;" d="M423.165,91.801
			c0,0,5.65-1.191,6.123-5.21s-4.255-5.437-4.255-5.437"/>
		<path style="fill:none;stroke:#263238;stroke-linecap:round;stroke-linejoin:round;stroke-miterlimit:10;" d="M352.189,90.595
			c-0.342,0.644-0.716,1.326-1.115,2.021c-1.923,3.352,1.94,3.471,4.471,6.914c2.532,3.443,0.864,5.893,7.054,5.015
			c6.189-0.878,5.744-4.121,9.391-2.212c3.648,1.909,7.04,4.719,10.78,2.174c3.739-2.545,5.798-2.937,8.544-1.283
			c2.746,1.653,6.125,4.168,10.429,1.003c4.304-3.165,5.825-2.345,9.823,0.735c3.998,3.079,8.357,1.099,9.35-3.1
			c0.993-4.199,2.259-2.477,5.675-5.601c3.416-3.124-0.004-6.526-0.004-6.526"/>
		<path style="fill:none;stroke:#263238;stroke-linecap:round;stroke-linejoin:round;stroke-miterlimit:10;" d="M411.567,104.962
			c0,0-1.357,8.194-10.984,9.821c-9.628,1.626-17.436-5.367-16.516-11.089"/>
		<path style="fill:none;stroke:#263238;stroke-linecap:round;stroke-linejoin:round;stroke-miterlimit:10;" d="M409.561,104.194
			c0,0-3.368,3.941-4.774,4.243c-1.406,0.301-3.67-3.744-3.67-3.744"/>
		<path style="fill:none;stroke:#263238;stroke-linecap:round;stroke-linejoin:round;stroke-miterlimit:10;" d="M399.676,105.39
			c0,0,0.893,3.951-0.008,4.939c-0.901,0.988-4.636,2.106-6.59,0.776c-1.954-1.33,1.381-5.98,1.381-5.98"/>
		<path style="fill:none;stroke:#263238;stroke-linecap:round;stroke-linejoin:round;stroke-miterlimit:10;" d="M392.436,104.034
			c0,0-1.4,3.853-3.053,3.929c-1.653,0.076-4.05-3.821-2.945-5.529"/>
		<path style="fill:none;stroke:#263238;stroke-linecap:round;stroke-linejoin:round;stroke-miterlimit:10;" d="M371.99,102.334
			c0,0-2.476,5.833-10.462,7.147c-7.985,1.314-5.103-8.048-5.103-8.048"/>
		<path style="fill:none;stroke:#263238;stroke-linecap:round;stroke-linejoin:round;stroke-miterlimit:10;" d="M367.397,103.295
			c0,0-2.95,2.739-5.999,3.352c-3.048,0.614-2.717-2.478-2.717-2.478"/>
		<path style="fill:none;stroke:#263238;stroke-linecap:round;stroke-linejoin:round;stroke-miterlimit:10;" d="M426.592,96.261
			c0,0,4.444,1.502,2.042,5.872c-2.402,4.37-6.191,4.308-8.553,4.416c-2.361,0.109-6.064,1.936-7.48,2.001s-3.006,0.643-3.006,0.643
			"/>
		<path style="fill:none;stroke:#263238;stroke-linecap:round;stroke-linejoin:round;stroke-miterlimit:10;" d="M359.537,109.543
			c0,0,3.023,1.784,6.104,1.879c3.081,0.095,8.995,0.059,13.718-0.158s8.505,0.675,8.505,0.675"/>
		<path style="fill:none;stroke:#263238;stroke-linecap:round;stroke-linejoin:round;stroke-miterlimit:10;" d="M356.718,108.292
			c0,0-5.699-0.93-6.356-4.923c-0.657-3.993,4.001-5.627,4.001-5.627"/>
		<path style="fill:none;stroke:#263238;stroke-width:0.5;stroke-linecap:round;stroke-linejoin:round;stroke-miterlimit:10;" d="
			M351.514,73.117c0,0,0.946,0.709,4.728,2.364c3.782,1.655,4.019,0.946,8.037,0.946s4.019,2.128,9.219,2.128
			c5.201,0,6.619-3.073,10.401-2.128c3.782,0.946,3.073,2.364,9.456,1.655c6.383-0.709,8.747-1.891,11.347-1.655
			c2.6,0.236,2.837,2.6,7.801,0c4.964-2.6,9.219-4.492,11.347-4.255"/>
	</g>
	<g>
		<path style="fill:none;stroke:#263238;stroke-linecap:round;stroke-linejoin:round;stroke-miterlimit:10;" d="M377.312,263.393
			c0,0,1.028-4.426,2.124-6.351c1.097-1.925,4.344-4.382,10.851-6.389c6.496-2.004,71.558-17.429,71.772-17.48
			c5.699-1.351,2.326,5.631,1.003,7.979c-7.046,12.508-24.666,17.38-37.654,20.628c-11.953,2.989-24.265,4.623-36.561,5.285
			c-12.97,0.697-8.908-1.648-8.908-1.648"/>
		<path style="fill:none;stroke:#263238;stroke-linecap:round;stroke-linejoin:round;stroke-miterlimit:10;" d="M379.436,257.042
			c0,0-7.14,3.58-11.566,2.553c-4.426-1.028-10.156-7.634-6.402-13.76c3.755-6.125,23.401-10.052,26.943-11.638
			c3.542-1.587,44.864-11.652,49.103-12.725c8.447-2.139,18.094-3.052,22.217-1.495c5.823,2.2,6.446,10.443,2.327,13.196"/>
		<path style="fill:none;stroke:#263238;stroke-linecap:round;stroke-linejoin:round;stroke-miterlimit:10;" d="M361.468,245.835
			c0,0-2.076-9.008,5.164-16.312c7.24-7.304,15.916-6.296,25.219-7.501c9.303-1.205,42.494-11.06,48.825-11.903
			c12.763-1.699,14.673,5.514,13.407,8.662"/>
		<path style="fill:none;stroke:#263238;stroke-linecap:round;stroke-linejoin:round;stroke-miterlimit:10;" d="M372.726,239.503
			c0,0,1.955-5.128,11.076-8.019c9.121-2.891,15.697-2.396,30.805-6.536s23.05-10.516,29.977-9.557
			c6.927,0.958,6.645,2.996,6.645,2.996"/>
		<path style="fill:none;stroke:#263238;stroke-linecap:round;stroke-linejoin:round;stroke-miterlimit:10;" d="M367.87,259.595
			c0,0,2.358,6.971,18.475,7.539"/>
		<g>
			<path style="fill:none;stroke:#263238;stroke-linecap:round;stroke-linejoin:round;stroke-miterlimit:10;" d="M378.616,250.508
				c-2.945,0-5.931-0.339-7.721-0.586c-1.138-0.157-1.932-1.207-1.775-2.345c0.157-1.138,1.208-1.937,2.345-1.776
				c5.109,0.704,10.412,0.698,11.948,0.026c-0.109-0.67-0.33-1.453-0.545-2.214c-0.631-2.233-1.346-4.765,0.236-6.581
				c1.449-1.664,3.855-1.547,5.538-1.314c2.859,0.395,5.197,1.363,7.075,2.14c3.187,1.319,4.371,1.707,5.969,0.36
				c1.258-1.061,1.626-2.277,2.052-3.684c0.692-2.288,1.641-5.421,7.061-5.681c4.159-0.198,7.06,0.884,9.619,1.84
				c1.898,0.709,3.691,1.378,5.933,1.527c0.08,0.005,0.149,0.007,0.207,0.007c-0.002-0.479-0.134-1.279-0.22-1.802
				c-0.289-1.758-0.648-3.946,0.617-5.577c0.726-0.936,1.809-1.475,3.221-1.602c3.745-0.33,6.664,0.728,9.49,1.754
				c1.715,0.624,3.336,1.212,5.073,1.453c0.829,0.115,0.863,0.12,1.377-1.636c0.472-1.613,1.261-4.314,4.426-4.571
				c4.063-0.331,5.96,0.333,6.299,0.469c1.066,0.429,1.582,1.64,1.153,2.706c-0.429,1.066-1.639,1.583-2.706,1.153c0,0,0.001,0,0,0
				c-0.007,0-1.361-0.429-4.409-0.182c-0.114,0.009-0.154,0.029-0.154,0.029c-0.202,0.143-0.472,1.066-0.617,1.562
				c-0.493,1.688-1.525,5.2-5.939,4.59c-2.174-0.301-4.081-0.994-5.924-1.663c-2.509-0.912-4.879-1.773-7.698-1.52
				c-0.148,0.013-0.246,0.034-0.305,0.051c-0.104,0.451,0.092,1.647,0.201,2.311c0.3,1.828,0.64,3.901-0.722,5.401
				c-0.829,0.914-2.054,1.323-3.646,1.218c-2.852-0.189-5.018-0.998-7.114-1.781c-2.396-0.895-4.662-1.736-7.965-1.582
				c-2.489,0.119-2.656,0.672-3.279,2.731c-0.486,1.605-1.151,3.803-3.352,5.659c-3.614,3.046-6.983,1.651-10.242,0.304
				c-1.83-0.758-3.723-1.541-6.054-1.863c-1.017-0.141-1.541-0.087-1.773-0.038c-0.021,0.579,0.345,1.873,0.573,2.68
				c0.32,1.132,0.651,2.303,0.745,3.46c0.085,1.041-0.297,2.019-1.075,2.754C385.059,250.095,381.863,250.508,378.616,250.508z"/>
		</g>
		<path style="fill:none;stroke:#263238;stroke-width:0.5;stroke-linecap:round;stroke-linejoin:round;stroke-miterlimit:10;" d="
			M365.795,248.903c0,0-2.633,1.122-2.449,3.378c0,0-1.54,0.874-2.087-1.032"/>
		<path style="fill:none;stroke:#263238;stroke-width:0.5;stroke-linecap:round;stroke-linejoin:round;stroke-miterlimit:10;" d="
			M363.454,253.286c0,0-0.202,1.459,2.02,1.518"/>
	</g>
</g>
<g id="Food_1">
	<g>
		
			<circle style="fill:none;stroke:#263238;stroke-linecap:round;stroke-linejoin:round;stroke-miterlimit:10;" cx="63.5" cy="200.764" r="23.5"/>
		<path style="fill:none;stroke:#263238;stroke-linecap:round;stroke-linejoin:round;stroke-miterlimit:10;" d="M42.515,208.328
			c3.098,8.593,11.324,14.737,20.985,14.737c7.716,0,14.517-3.919,18.521-9.874"/>
		<path style="fill:none;stroke:#263238;stroke-linecap:round;stroke-linejoin:round;stroke-miterlimit:10;" d="M41.532,204.626
			c0.127,0.726,0.289,1.439,0.484,2.139"/>
		<path style="fill:none;stroke:#263238;stroke-linecap:round;stroke-linejoin:round;stroke-miterlimit:10;" d="M59.172,178.882
			c-10.245,2.015-17.973,11.046-17.973,21.881c0,0.937,0.058,1.86,0.17,2.766"/>
		<path style="fill:none;stroke:#263238;stroke-linecap:round;stroke-linejoin:round;stroke-miterlimit:10;" d="M82.873,211.817
			c1.863-3.258,2.928-7.031,2.928-11.053c0-12.317-9.985-22.301-22.301-22.301c-0.932,0-1.85,0.057-2.752,0.168"/>
		<path style="fill:none;stroke:#263238;stroke-linecap:round;stroke-linejoin:round;stroke-miterlimit:10;" d="M65.173,181.728
			c1.576-0.101,3.007,0.02,4.562,0.452c2.158,0.6,3.597,2.398,3.597,2.997s-0.24,1.199-0.599,2.158
			c-0.36,0.959-7.793,11.63-7.793,11.63s-1.079,0.12-1.199-0.6l-2.878-15.107c0,0,0-0.959,2.398-1.319"/>
		<path style="fill:none;stroke:#263238;stroke-linecap:round;stroke-linejoin:round;stroke-miterlimit:10;" d="M57.444,195.818
			l-8.187-5.567c0,0-0.678-0.678,0.763-2.628c1.441-1.95,2.798-3.307,4.748-4.409c1.95-1.102,4.239-0.848,4.663-0.424
			s0.678,1.017,1.102,1.95s2.713,13.734,2.713,13.734s-0.678,0.848-1.272,0.424l-3.376-2.296"/>
		<path style="fill:none;stroke:#263238;stroke-linecap:round;stroke-linejoin:round;stroke-miterlimit:10;" d="M45.141,193.874
			c0.738-1.789,2.235-2.942,2.772-2.942c0.599,0,1.199,0.24,2.158,0.6c0.959,0.36,11.63,7.793,11.63,7.793s0.12,1.079-0.599,1.199
			l-15.107,2.878c0,0-0.959,0-1.319-2.398c-0.27-1.799-0.337-3.327-0.101-4.89"/>
		<path style="fill:none;stroke:#263238;stroke-linecap:round;stroke-linejoin:round;stroke-miterlimit:10;" d="M57.714,208.056
			l-4.726,6.951c0,0-0.678,0.678-2.628-0.763c-1.95-1.441-3.306-2.798-4.409-4.748c-1.102-1.95-0.848-4.239-0.424-4.663
			c0.424-0.424,1.017-0.678,1.95-1.102c0.932-0.424,13.734-2.713,13.734-2.713s0.848,0.678,0.424,1.272l-2.949,4.337"/>
		<path style="fill:none;stroke:#263238;stroke-linecap:round;stroke-linejoin:round;stroke-miterlimit:10;" d="M60.981,219.832
			c-1.253,0.014-2.443-0.131-3.715-0.484c-2.158-0.599-3.597-2.398-3.597-2.997s0.24-1.199,0.599-2.158
			c0.36-0.959,7.793-11.63,7.793-11.63s1.079-0.12,1.199,0.6l2.878,15.107c0,0,0,0.959-2.398,1.319
			c-0.458,0.069-0.898,0.124-1.326,0.165"/>
		<path style="fill:none;stroke:#263238;stroke-linecap:round;stroke-linejoin:round;stroke-miterlimit:10;" d="M65.026,202.629
			l12.717,8.648c0,0,0.678,0.678-0.763,2.628c-1.441,1.95-2.798,3.306-4.748,4.409c-1.95,1.102-4.239,0.848-4.663,0.424
			c-0.424-0.424-0.678-1.017-1.102-1.95c-0.424-0.933-2.713-13.734-2.713-13.734S64.433,202.205,65.026,202.629z"/>
		<path style="fill:none;stroke:#263238;stroke-linecap:round;stroke-linejoin:round;stroke-miterlimit:10;" d="M65.898,201.003
			l15.107-2.878c0,0,0.959,0,1.319,2.398c0.36,2.398,0.36,4.316-0.24,6.475c-0.599,2.158-2.398,3.597-2.997,3.597
			s-1.199-0.24-2.158-0.6c-0.959-0.36-11.63-7.793-11.63-7.793S65.179,201.123,65.898,201.003z"/>
		<path style="fill:none;stroke:#263238;stroke-linecap:round;stroke-linejoin:round;stroke-miterlimit:10;" d="M79.981,190.419
			c0.385,0.496,0.739,1.027,1.069,1.612c1.102,1.95,0.848,4.239,0.424,4.663c-0.424,0.424-1.017,0.678-1.95,1.102
			c-0.932,0.424-13.734,2.713-13.734,2.713s-0.848-0.678-0.424-1.272l8.648-12.717c0,0,0.678-0.678,2.628,0.763
			c0.781,0.577,1.466,1.141,2.079,1.734"/>
	</g>
	<g>
		
			<circle style="fill:none;stroke:#263238;stroke-linecap:round;stroke-linejoin:round;stroke-miterlimit:10;" cx="134.917" cy="76.18" r="32.75"/>
		<path style="fill:none;stroke:#263238;stroke-linecap:round;stroke-linejoin:round;stroke-miterlimit:10;" d="M105.671,86.722
			c4.318,11.976,15.782,20.537,29.246,20.537c10.753,0,20.231-5.461,25.811-13.761"/>
		<path style="fill:none;stroke:#263238;stroke-linecap:round;stroke-linejoin:round;stroke-miterlimit:10;" d="M104.302,81.563
			c0.177,1.011,0.402,2.006,0.674,2.981"/>
		<path style="fill:none;stroke:#263238;stroke-linecap:round;stroke-linejoin:round;stroke-miterlimit:10;" d="M128.885,45.686
			c-14.278,2.808-25.047,15.393-25.047,30.494c0,1.305,0.08,2.592,0.237,3.855"/>
		<path style="fill:none;stroke:#263238;stroke-linecap:round;stroke-linejoin:round;stroke-miterlimit:10;" d="M161.916,91.584
			c2.596-4.54,4.08-9.799,4.08-15.404c0-17.164-13.915-31.079-31.079-31.079c-1.299,0-2.578,0.08-3.835,0.234"/>
		<path style="fill:none;stroke:#263238;stroke-linecap:round;stroke-linejoin:round;stroke-miterlimit:10;" d="M137.248,49.651
			c2.196-0.141,4.19,0.027,6.358,0.63c3.008,0.835,5.013,3.342,5.013,4.177c0,0.835-0.334,1.671-0.835,3.008
			c-0.501,1.337-10.861,16.208-10.861,16.208s-1.504,0.167-1.671-0.835l-4.01-21.054c0,0,0-1.337,3.342-1.838"/>
		<path style="fill:none;stroke:#263238;stroke-linecap:round;stroke-linejoin:round;stroke-miterlimit:10;" d="M126.477,69.288
			l-11.41-7.759c0,0-0.945-0.945,1.063-3.663c2.009-2.717,3.899-4.608,6.617-6.144c2.717-1.536,5.908-1.181,6.498-0.591
			c0.591,0.591,0.945,1.418,1.536,2.717c0.591,1.3,3.781,19.141,3.781,19.141s-0.945,1.182-1.772,0.591l-4.704-3.199"/>
		<path style="fill:none;stroke:#263238;stroke-linecap:round;stroke-linejoin:round;stroke-miterlimit:10;" d="M109.332,66.579
			c1.029-2.494,3.115-4.1,3.863-4.1c0.836,0,1.671,0.334,3.008,0.836c1.337,0.501,16.208,10.861,16.208,10.861
			s0.167,1.504-0.835,1.671l-21.054,4.01c0,0-1.337,0-1.838-3.342c-0.376-2.506-0.47-4.637-0.141-6.814"/>
		<path style="fill:none;stroke:#263238;stroke-linecap:round;stroke-linejoin:round;stroke-miterlimit:10;" d="M126.853,86.343
			l-6.587,9.687c0,0-0.945,0.945-3.663-1.063c-2.717-2.009-4.608-3.899-6.144-6.617c-1.536-2.717-1.182-5.908-0.591-6.498
			c0.591-0.591,1.418-0.945,2.717-1.536c1.3-0.591,19.141-3.781,19.141-3.781s1.182,0.945,0.591,1.772l-4.11,6.044"/>
		<path style="fill:none;stroke:#263238;stroke-linecap:round;stroke-linejoin:round;stroke-miterlimit:10;" d="M131.406,102.754
			c-1.747,0.02-3.404-0.182-5.178-0.675c-3.008-0.835-5.013-3.342-5.013-4.177c0-0.835,0.334-1.671,0.836-3.008
			c0.501-1.337,10.861-16.208,10.861-16.208s1.504-0.167,1.671,0.836l4.01,21.053c0,0,0,1.337-3.342,1.838
			c-0.638,0.096-1.252,0.173-1.848,0.23"/>
		<path style="fill:none;stroke:#263238;stroke-linecap:round;stroke-linejoin:round;stroke-miterlimit:10;" d="M137.043,78.78
			l17.723,12.051c0,0,0.945,0.945-1.063,3.663c-2.009,2.717-3.899,4.608-6.616,6.144c-2.718,1.536-5.908,1.182-6.498,0.591
			c-0.591-0.591-0.945-1.418-1.536-2.717c-0.591-1.3-3.781-19.141-3.781-19.141S136.216,78.189,137.043,78.78z"/>
		<path style="fill:none;stroke:#263238;stroke-linecap:round;stroke-linejoin:round;stroke-miterlimit:10;" d="M138.258,76.514
			l21.054-4.01c0,0,1.337,0,1.838,3.342c0.501,3.342,0.501,6.015-0.334,9.023c-0.836,3.008-3.342,5.013-4.177,5.013
			s-1.671-0.334-3.008-0.835c-1.337-0.501-16.208-10.861-16.208-10.861S137.256,76.682,138.258,76.514z"/>
		<path style="fill:none;stroke:#263238;stroke-linecap:round;stroke-linejoin:round;stroke-miterlimit:10;" d="M157.884,61.764
			c0.537,0.692,1.029,1.432,1.49,2.247c1.536,2.718,1.182,5.908,0.591,6.498c-0.591,0.591-1.418,0.945-2.717,1.536
			c-1.3,0.591-19.141,3.781-19.141,3.781s-1.182-0.945-0.591-1.772l12.051-17.723c0,0,0.945-0.945,3.663,1.063
			c1.088,0.804,2.044,1.59,2.897,2.417"/>
	</g>
	<g>
		<path style="fill:none;stroke:#263238;stroke-linecap:round;stroke-linejoin:round;stroke-miterlimit:10;" d="M101.655,361.573
			c0,0-1.018,2.375-1.239,2.954c-0.221,0.579,0.049,1.898,0.049,1.898l0.8-0.358l0.094,2.358l1.186-0.21l0.835,1.867l0.99-1.723
			l0.684,0.814c0,0,1.168-1.323,1.123-1.782c-0.046-0.46,2.003,0.544,2.003,0.544s1.492-2.747,1.401-3.666
			c-0.091-0.919,0.47-1.81,0.47-1.81l0.968,1.807l1.674-0.908l0.754-0.817l0.982,1.481l0.765-2.582l0.204-1.691l0.982,1.481
			l1.589,1.049l0.867-3.428l-0.403-1.26l-0.358-0.8l1.126-0.344c0,0-0.344-1.126-0.523-1.526c-0.179-0.4-0.537-1.2-0.537-1.2
			l-0.077-1.245l0.607-0.431l1.126-0.344l-0.403-1.26l1.305,0.056l1.235,1.688l2.193-0.821l0.817,0.754l-0.116,1.172l0.431,0.607
			l-0.397,1.617c0,0-0.547,0.565-0.368,0.965s0.108,2.031,0.108,2.031l-0.161,0.712l2.267-1.014l0.814-0.684l0.565,0.547
			c0,0,1.038,0.175,1.645-0.256c0.607-0.431,2.13-2.392,2.13-2.392l0.863,1.214l0.456-1.484l0.025-2.091l-0.985-2.919l1.112-0.017
			l2.066,2.116l2.108,1.137l-0.182-1.838l1.944,0.411l1.645-0.256l-1.638-2.947l1.393-0.463l-1.354-1.954l-0.937-1.021l-1.544-0.59
			l-1.635-1.509c0,0-1.158-0.442,0.706-2.715c1.863-2.273,5.134-5.336,5.134-5.336s11.347-5.394,19.673-8.957
			c8.326-3.563,13.182-7.015,16.762-11.175c3.579-4.161,5.66-8.451,5.801-11.714c0.141-3.263-2.514-9.915-3.138-10.596
			c-0.624-0.681-0.849-1.54-8.637-2.857c-7.788-1.317-19.304,1.913-23.704,3.88c-4.4,1.967-18.13,9.547-19.537,10.336
			c-1.407,0.789-4.961,2.859-4.961,2.859l1.148-3.873c0,0-0.712-0.161-0.803-1.081c-0.091-0.919-0.53,1.677-0.53,1.677l-0.599-2.772
			l-0.137-1.379l-1.172-0.116l-0.403-1.26l-0.926-2.786l-1.186,0.21l-0.298-0.667l-2.042,1.873l-0.358-0.8l-1.603-0.723l-0.425,2.27
			l1.459,2.547l-2.764-2.604l-2.049-1.004l-1.245,0.077l0.537,1.2l-1.558-0.263l0.239,0.533l-1.361,1.249l-0.295,0.772l-0.88-2.326
			l-1.449,1.768l-0.21-1.186c0,0-0.656-1.467-0.835-1.867c-0.179-0.4-1.652-2.621-1.652-2.621l-0.383,1.291l-0.551-0.874
			l-1.736-0.663l-0.698-0.488l-0.93,1.856l-0.933,0.417c0,0-0.176,1.039-0.13,1.498c0.046,0.46,0.168,2.165,0.168,2.165
			s0.463,1.393,0.508,1.853c0.046,0.46,0.642,1.793,0.642,1.793l-1.779,0.316l-0.979-0.042l-1.259,0.403l0.923,1.347l-1.555,1.175
			l1.856,0.93l0.831,0.428l-0.621,0.758l1.737,0.663l1.558,0.263l-0.755,0.817l-1.705,0.122l-2.122-0.811
			c0,0-2.971-2.351-3.15-2.751c-0.179-0.4-1.101-1.747-1.101-1.747l-1.081,0.803l-1.158-0.442l-0.607,0.431l-2.287-1.537
			l-0.425,2.27l-1.733,0.775l0.165,0.726l-2.119,0.628l-3.379,1.031l-1.081,0.803l1.916,1.063l0.951,0.695l-1.007,0.61l1.351,0.516
			l0.698,0.488l-0.354,0.638l1.13,1.095c0,0-1.912,0.375-2.431,0.287s-1.631-0.07-1.631-0.07l-1.067,0.477l0.758,0.621l-1.867,0.835
			l-1.214,0.863l-2.281,1.34l-0.933,0.417l0.624,0.681l-2.428,1.726l-0.828,1.01l1.158,0.442l1.158,0.442l1.677,0.53l1.677,0.53
			l0.551,0.874l1.13,1.095l1.828,1.583l0.298,0.667l-1.481,0.982l-1.13-1.095l-1.722-0.99l-0.772-0.295l-1.246,0.077l-2.312,0.554
			c0,0-0.014,0.326,0.477,1.067c0.491,0.74-0.962,1.07-0.962,1.07l-1.112,0.017l2.122,0.811l1.07,0.961c0,0-1.853,0.509-2.519,0.807
			c-0.667,0.298-1.481,0.982-1.481,0.982l0.358,0.8l-1.614,1.042l-2.19,2.259l1.351,0.516c0,0-0.547,0.565-1.021,0.937
			c-0.474,0.372,2.137,0.484,2.137,0.484s1.277,0.709,1.81,0.47c0.533-0.238,3.305-0.838,3.305-0.838l-0.99,1.722l2-0.894
			l0.372,0.474l1.793-0.642l0.667-0.298l-0.158,2.151l0.726-0.165l1.2-0.537l0.8-0.358l0.33,1.453l-1.523,1.961l0.21,1.186
			c0,0-0.474,0.372-0.888,0.877c-0.414,0.505-0.516,1.351-0.516,1.351s1.112-0.017,1.765,0.011c0.653,0.028,2.151,0.158,2.551-0.021
			c0.4-0.179,0.715,1.6,0.715,1.6l0.86-0.224l2.803,0.186l3.021-1.831l1.081-0.803l0.8-0.358l-1.404,2.228
			c0,0-1.095,1.129-1.495,1.308c-0.4,0.179-0.828,1.01-0.828,1.01l1.277,0.709l-3.705,1.017l0.491,0.74l-1.214,0.863
			c0,0,2.168,1.27,2.687,1.358c0.519,0.088,2.151,0.158,2.151,0.158l-0.695,0.951l1.838-0.182l1.453-0.33l-0.13,1.498l1.881-1.161
			l1.614-1.042l0.143,4.256l2.074-1.087l-1.179,3.087l-1.222,4.066l1.881-1.161l1.867-0.835l1.986-0.568l0.874-0.551
			L101.655,361.573z"/>
		<path style="fill:none;stroke:#263238;stroke-linecap:round;stroke-linejoin:round;stroke-miterlimit:10;" d="M118.176,336.266
			c0,0,4.323-0.996,10.393-2.804c5.698-1.697,12.936-4.108,19.584-7.082c13.733-6.141,21.467-15.679,23.509-17.553
			s5.664-7.013,5.664-7.013l-0.287-2.431c0,0-1.839,0.182-1.484-0.456c0.354-0.638,0.709-1.277,0.709-1.277"/>
		<path style="fill:none;stroke:#263238;stroke-linecap:round;stroke-linejoin:round;stroke-miterlimit:10;" d="M171.662,295.229
			c0,0-10.438,0.988-18.929,3.825c-8.491,2.837-19.438,8.052-24.445,10.451c-5.007,2.399-13.968,7.046-14.902,7.464
			c-0.933,0.417-10.961,5.542-10.961,5.542s-0.411,1.944-1.621,4.245c-1.211,2.301-1.622,4.245-2.243,5.003
			c-0.621,0.758-1.302,1.382-1.302,1.382l-0.463-1.393c0,0-1.018,2.375-1.492,2.747c-0.474,0.372-1.081,0.803-1.081,0.803
			l-2.8,1.252l-0.772-0.295l0.47-1.81c0,0-2.028,1.547-2.428,1.726c-0.4,0.179-0.947,0.744-1.481,0.982
			c-0.533,0.238-1.674,0.908-2.607,1.326c-0.933,0.417-1.853,0.508-2.505,0.48c-0.653-0.028-1.898,0.049-2.491,0.154
			c-0.593,0.105-1.839,0.182-1.839,0.182s-0.533,0.238,0.19-1.365c0.723-1.603,2.657-5.508,2.657-5.508s1.214-0.863,1.614-1.042
			s2.828-1.905,2.828-1.905l1.274-0.73c0,0-1.231-0.249-0.817-0.754c0.414-0.505,2.372-0.421,2.891-0.333
			c0.519,0.088-0.403-1.26-0.403-1.26l1.274-0.73c-0.491-0.74-1.652-2.621-1.652-2.621l0.176-1.039c0,0-0.358-0.8-0.803-1.081
			c-0.445-0.281-0.445-0.281-0.445-0.281s2.252-0.687,3.158-0.452c0.905,0.235,1.944,0.411,2.849,0.646
			c0.905,0.235,1.87,0.604,2.582,0.765c0.712,0.161,1.81,0.47,2.27,0.425c0.46-0.046,1.158,0.442,1.958,0.085
			c0.8-0.358,2.372-0.421,3.66-1.477c1.288-1.056,5.79-3.869,6.47-4.493c0.681-0.624,3.035-2.157,3.835-2.515
			c0.8-0.358,2.961-1.964,2.961-1.964s-3.452,1.224-5.35,1.273c-1.898,0.049-7.638-0.264-7.638-0.264s-2.877,0.007-3.649-0.288
			c-0.772-0.295-3.635-0.615-3.635-0.615s-1.926,0.701-2.46,0.94c-0.533,0.239-0.828,1.01-1.256,1.842
			c-0.428,0.832-0.116,1.172-0.87,1.989c-0.754,0.817-2.902,2.098-2.902,2.098s-0.533,0.238-1.2,0.537
			c-0.667,0.298-1.705,0.122-1.705,0.122l0.604-1.87l-1.81-0.47l0.442-1.158c0,0,0.028-0.653-0.922-1.347
			c-0.951-0.695-3.017-2.811-3.017-2.811l-1.203-0.902"/>
		<path style="fill:none;stroke:#263238;stroke-linecap:round;stroke-linejoin:round;stroke-miterlimit:10;" d="M98.884,310.655
			c0,0,0.572,0.054,1.352,0.131c1.243,0.123,3.016,0.304,3.854,0.421c1.365,0.19,3.263,0.141,3.975,0.302
			c0.712,0.161,1.824,0.144,2.417,0.039c0.593-0.105,1.705-0.122,1.705-0.122l-5.238-1.338l-3.796,0.098l0.028-0.653l-2.639,0.54
			L98.884,310.655z"/>
		<path style="fill:none;stroke:#263238;stroke-linecap:round;stroke-linejoin:round;stroke-miterlimit:10;" d="M111.737,302.187
			l1.116,1.421L111,304.117l1.07,0.962l-0.635,1.084l0.537,1.2l1.544,0.59l1.442,1.435l2.579-0.673c0,0-3.228,2.083-3.793,1.536
			c-0.565-0.547-5.417-1.737-5.417-1.737s-1.014-2.267-0.512-3.291c0.502-1.024,1.197-1.975,1.937-2.466
			C110.491,302.264,111.737,302.187,111.737,302.187l-2.673-1.684l1.954-1.354l-1.765-0.011"/>
		<path style="fill:none;stroke:#263238;stroke-linecap:round;stroke-linejoin:round;stroke-miterlimit:10;" d="M122.588,306.775
			c0,0-1.958-0.085-2.628-1.225c-0.67-1.14-1.757-3.214-1.757-3.214l0.48,2.505l-6.434-5.443l5.872,6.334l-3.898,0.943
			c0,0,4.003-0.35,4.463-0.396c0.46-0.046,1.663,0.856,1.663,0.856l0.891,0.561l-2.474,1.266"/>
		<path style="fill:none;stroke:#263238;stroke-linecap:round;stroke-linejoin:round;stroke-miterlimit:10;" d="M108.326,308.513
			c0,0-2.284-0.099-2.642-0.899c-0.358-0.8,0.138-4.701,0.138-4.701s-1.27,2.168-1.299,2.821c-0.028,0.653,0.137,1.379,0.137,1.379
			s-3.641-3.491-4.118-4.558c-0.477-1.067-1.553-4.905-1.553-4.905s1.213,5.217,1.63,6.151c0.417,0.933,0.968,1.807,1.607,2.161
			c0.638,0.354,1.456,1.109,1.961,1.523c0.505,0.414,1.263,1.035,1.782,1.123c0.519,0.088,1.856,0.93,1.856,0.93"/>
		<path style="fill:none;stroke:#263238;stroke-linecap:round;stroke-linejoin:round;stroke-miterlimit:10;" d="M95.028,310.619
			c0,0-5.119-1.071-5.831-1.232c-0.712-0.161-3.337,0.052-3.782-0.229c-0.445-0.281-2.758,0.273-3.217,0.319"/>
		<path style="fill:none;stroke:#263238;stroke-linecap:round;stroke-linejoin:round;stroke-miterlimit:10;" d="M93.263,310.608
			c0,0-1.94,1.028-3.333,1.491c-1.393,0.463-2.488,1.592-2.488,1.592"/>
		<path style="fill:none;stroke:#263238;stroke-linecap:round;stroke-linejoin:round;stroke-miterlimit:10;" d="M85.274,312.421
			c0,0,2.147-1.28,2.488-1.592c0.34-0.312,1.54-0.849,1.54-0.849l0.786-0.032l0.593-0.105"/>
		<path style="fill:none;stroke:#263238;stroke-linecap:round;stroke-linejoin:round;stroke-miterlimit:10;" d="M83.576,335.099
			c0,0,4.277-3.673,6.944-4.865c2.667-1.192,4.516-3.139,5.597-3.943c1.081-0.803,4.456-3.273,4.856-3.452"/>
		<path style="fill:none;stroke:#263238;stroke-linecap:round;stroke-linejoin:round;stroke-miterlimit:10;" d="M96.724,325.86
			c0,0-0.042,0.979-0.379,2.73c-0.337,1.751-0.541,3.442-0.941,3.621c-0.4,0.179-1.863,2.273-1.863,2.273"/>
		<path style="fill:none;stroke:#263238;stroke-linecap:round;stroke-linejoin:round;stroke-miterlimit:10;" d="M90.52,330.234
			c0,0-0.828,1.01-1.39,1.901c-0.562,0.891-1.299,2.821-1.299,2.821"/>
		<path style="fill:none;stroke:#263238;stroke-linecap:round;stroke-linejoin:round;stroke-miterlimit:10;" d="M98.159,324.418
			c0,0-2.017-0.218-3.189-0.334c-1.172-0.116-2.284-0.099-2.922-0.453"/>
		<path style="fill:none;stroke:#263238;stroke-linecap:round;stroke-linejoin:round;stroke-miterlimit:10;" d="M86.504,350.589
			l2.758-0.273l3.892-3.82c0,0,1.881-1.161,2.161-1.607c0.281-0.445,2.039-3.312,2.039-3.312l1.597-2.154l-1.245,0.077l1.39-1.901
			l1.063-1.915l0.933-0.417l-2.61-0.113l0.53-1.677l0.888-0.877c0,0-0.176,1.039-2.204,2.585c-2.028,1.547-4.513,4.578-5,5.276
			c-0.488,0.698-1.344,2.361-1.699,3c-0.354,0.638-0.425,2.27-0.765,2.582s-1.035,1.263-1.035,1.263"/>
		<path style="fill:none;stroke:#263238;stroke-linecap:round;stroke-linejoin:round;stroke-miterlimit:10;" d="M78.796,345.876
			l2.045-0.435c0,0,6.267-2.802,8.133-3.637c1.867-0.835,5.537-4.076,5.537-4.076s-3.288,1.95-4.86,2.013s-5.515,0.547-5.515,0.547
			l-1.319,0.27"/>
		<path style="fill:none;stroke:#263238;stroke-linecap:round;stroke-linejoin:round;stroke-miterlimit:10;" d="M94.512,337.729
			c0,0,2.488-1.592,4.498-4.251c2.011-2.659,3.193-4.308,6.569-6.777c3.375-2.469,5.909-3.602,8.175-4.616
			c2.267-1.014,5.407-2.578,5.747-2.89s1.793-0.642,2.726-1.059c0.933-0.417,2.533-1.133,3.007-1.505
			c0.474-0.372,3.495-2.203,3.495-2.203s-5.617,1.392-6.389,1.097c-0.772-0.295-3.649-0.288-3.649-0.288l-1.586,0.389l-1.379,0.137"
			/>
		<path style="fill:none;stroke:#263238;stroke-linecap:round;stroke-linejoin:round;stroke-miterlimit:10;" d="M109.5,316.147
			c0,0-4.806-0.73-6.185-0.594c-1.379,0.137-6.312,2.343-7.038,2.507s-3.186,1.105-3.186,1.105l1.368,1.628"/>
		<path style="fill:none;stroke:#263238;stroke-linecap:round;stroke-linejoin:round;stroke-miterlimit:10;" d="M91.438,316.544
			l0.937,1.021c0,0,5.067-2.266,6.905-2.448c1.838-0.182,4.684-0.975,6.108-0.652s4.315-0.01,4.315-0.01l2.091,0.025"/>
		<polyline style="fill:none;stroke:#263238;stroke-linecap:round;stroke-linejoin:round;stroke-miterlimit:10;" points="
			86.037,328.079 86.311,324.757 84.918,325.22 84.838,322.536 83.312,323.058 82.908,321.798 80.792,323.865 80.284,322.012 
			78.656,323.38 77.435,321.366 76.681,322.184 75.151,321.267 75.169,322.38 73.509,322.962 71.225,322.863 72.846,324.698 		"/>
		<path style="fill:none;stroke:#263238;stroke-linecap:round;stroke-linejoin:round;stroke-miterlimit:10;" d="M82.233,331.38
			c0,0-4.701-0.138-7.249,1.322c-2.547,1.459-4.989,3.511-4.989,3.511"/>
		<path style="fill:none;stroke:#263238;stroke-linecap:round;stroke-linejoin:round;stroke-miterlimit:10;" d="M82.647,330.875
			c0,0-3.221-1.12-4.725-4.127"/>
		<path style="fill:none;stroke:#263238;stroke-linecap:round;stroke-linejoin:round;stroke-miterlimit:10;" d="M137.501,336.904
			c0,0-1.035,1.263-3.355,5.02c-2.32,3.757-2.331,5.522-3.187,7.185c-0.856,1.663-1.06,3.354-2.021,4.424
			c-0.961,1.07-1.376,1.575-1.376,1.575"/>
		<path style="fill:none;stroke:#263238;stroke-linecap:round;stroke-linejoin:round;stroke-miterlimit:10;" d="M133.792,342.563
			c0,0,0.126,3.144,1.806,5.112"/>
		<path style="fill:none;stroke:#263238;stroke-linecap:round;stroke-linejoin:round;stroke-miterlimit:10;" d="M136.968,337.142
			c0,0-5.947-0.06-9.89,0.423c-3.944,0.484-8.035,1.353-8.035,1.353l1.031,3.379l-0.87,1.989l-0.442,1.158l-1.228,1.189
			l-1.038-0.176l-1.446,3.207l-1.403-3.853l-0.671,4.94c0,0-0.143-4.256-0.101-5.235c0.042-0.979,0.158-2.151,0.586-2.982
			c0.428-0.831,1.12-3.221,1.12-3.221l-2.555,4.662l-1.477,2.421l-1.256,1.842l-1.2,0.537l-0.631-3.558l-2.158,3.045l-2.877,0.007
			c0,0,0.436-4.035,0.864-4.866c0.428-0.831-2.754,1.712-2.754,1.712s1.832-3.059,2.113-3.505c0.281-0.445,0.635-1.084,1.463-2.094
			c0.828-1.01,1.73-2.214,1.73-2.214l0.607-0.431l-1.558-0.263l0.516-1.351l-2.628-1.225l-1.856-0.93l1.067-0.477l-0.077-1.245
			l2.179-0.494l2.133-0.954c0,0-0.165-0.726-0.344-1.126c-0.179-0.4,0.874-0.551,1.512-0.196c0.638,0.354,0.519,0.088,2.568,1.091
			c2.049,1.004,3.992,1.415,4.571,1.636c0.579,0.221,2.344,0.232,2.344,0.232s1.098,0.309,4.207-2.041
			c3.109-2.35,9.074-7.258,9.074-7.258s9.814-7.749,19.751-13.792c9.937-6.043,16.217-9.172,18.305-10.586
			c2.088-1.414,4.561-2.68,4.561-2.68"/>
		<path style="fill:none;stroke:#263238;stroke-linecap:round;stroke-linejoin:round;stroke-miterlimit:10;" d="M118.404,338.564
			c0,0-1.575-1.376,0.362-3.842c1.937-2.466,12.912-8.334,19.218-13.554s29.049-14.11,31.701-14.976
			c2.652-0.866,4.312-1.448,4.312-1.448"/>
		<path style="fill:none;stroke:#263238;stroke-linecap:round;stroke-linejoin:round;stroke-miterlimit:10;" d="M119.594,314.033
			c0,0,9.873-1.535,16.613-4.709c6.74-3.174,14.056-7.565,18.039-10.466"/>
		<path style="fill:none;stroke:#263238;stroke-linecap:round;stroke-linejoin:round;stroke-miterlimit:10;" d="M157.723,321.302
			c0,0-14.543,2.183-18.188,3.334c-3.646,1.15-5.126,2.132-5.126,2.132l-1.13,4.985"/>
		<path style="fill:none;stroke:#263238;stroke-linecap:round;stroke-linejoin:round;stroke-miterlimit:10;" d="M123.822,334.221
			l-2.049-1.004c0,0,4.561-2.68,4.961-2.859s1.688-1.235,1.688-1.235l-1.285,2.494l1.66-0.582l0.242,1.972"/>
		<polyline style="fill:none;stroke:#263238;stroke-linecap:round;stroke-linejoin:round;stroke-miterlimit:10;" points="
			114.532,331.336 120.529,327.214 111.192,329.95 		"/>
		<path style="fill:none;stroke:#263238;stroke-linecap:round;stroke-linejoin:round;stroke-miterlimit:10;" d="M146.84,315.928
			c0,0,8.182-1.739,14.048-4.362c5.867-2.623,7.137-4.791,7.137-4.791"/>
		<path style="fill:none;stroke:#263238;stroke-linecap:round;stroke-linejoin:round;stroke-miterlimit:10;" d="M108.877,348.744
			c0,0,1.519,2.681,1.375,4.505c-0.144,1.824,0.41,4.136-0.373,5.606s-2.26,3.891-2.26,3.891l0.053-2.744l-0.902,1.203l-0.041-5.101
			l-1.583,1.828l-0.393,3.056l-1.772,3.193l-0.347-2.565l-1.067,0.477l-0.523-1.526"/>
		<polyline style="fill:none;stroke:#263238;stroke-linecap:round;stroke-linejoin:round;stroke-miterlimit:10;" points="
			95.684,357.524 94.186,357.393 96.344,354.349 94.193,354.19 98.221,351.749 98.531,350.651 97.33,351.188 99.152,349.893 
			98.053,349.584 100.127,348.497 100.927,348.139 101.787,347.915 		"/>
		<path style="fill:none;stroke:#263238;stroke-linecap:round;stroke-linejoin:round;stroke-miterlimit:10;" d="M116.233,333.543
			c0,0-2.497,2.36-3.611,4.634c-1.114,2.274-3.015,5.966-3.015,5.966"/>
		<path style="fill:none;stroke:#263238;stroke-linecap:round;stroke-linejoin:round;stroke-miterlimit:10;" d="M113.737,335.902
			c0,0-0.642-0.245-3.478-1.819c-2.835-1.574-3.773-1.687-3.773-1.687"/>
		<path style="fill:none;stroke:#263238;stroke-linecap:round;stroke-linejoin:round;stroke-miterlimit:10;" d="M115.692,334.318
			c0,0-0.078,1.811,0.568,3.653c0.646,1.842,0.836,5.842,0.525,6.336"/>
		<path style="fill:none;stroke:#263238;stroke-linecap:round;stroke-linejoin:round;stroke-miterlimit:10;" d="M112.622,338.176
			c0,0-3.139,2.114-5.227,3.403"/>
		<path style="fill:none;stroke:#263238;stroke-linecap:round;stroke-linejoin:round;stroke-miterlimit:10;" d="M106.378,350.026
			c0,0-2.178,5.059-4.133,6.643c-1.955,1.585-4.997,3.123-4.997,3.123l-1.313,1.83"/>
		<path style="fill:none;stroke:#263238;stroke-linecap:round;stroke-linejoin:round;stroke-miterlimit:10;" d="M105.821,351.163
			c0,0-2.828,1.62-4.604,2.414c-1.776,0.794-2.516,1.125-2.516,1.125"/>
	</g>
	<g>
		<path style="fill:none;stroke:#263238;stroke-linecap:round;stroke-linejoin:round;stroke-miterlimit:10;" d="M109.995,172.079
			c0,0-0.224,0.112-1.899-0.112c-1.676-0.224-0.782-2.458-1.452-2.905c-0.67-0.447-4.804,0.447-4.804,0.447s3.352-0.112,3.687,0
			c0.335,0.112,0.335,2.346,0.335,2.905s2.458,1.229,3.463,1.229c1.005,0,1.787,0.112,1.787,0.112s-0.67,0.223-0.782,1.452
			c-0.112,1.229-0.67,1.899-1.452,2.011c-0.782,0.112-2.905,0.782-2.905,1.676c0,0,1.005-0.67,2.011-0.67
			c1.005,0,2.569,0.559,3.016-0.223s1.229-2.793,1.229-2.793s1.005,0.782,1.899,0.782c0.894,0,2.681-0.67,3.016-0.894
			c0.335-0.223,2.346-1.899,2.458-2.458c0.112-0.559,0.335-2.234,0.335-2.234s0.67-1.676,1.34-2.234
			c0.67-0.559,1.452-1.787,1.452-2.569c0-0.782-0.335-2.234-0.782-2.681c-0.447-0.447-1.564-0.894-1.899-0.894
			c-0.335,0-1.564,0-1.564,0s1.788,0.67,2.234,1.117c0.447,0.447,0.447,1.564,0.447,1.564s-0.447,1.564-0.782,1.788
			c-0.335,0.223-1.005,0.67-1.005,0.67s-0.559,0.559-0.894,0.894c-0.335,0.335-1.34,1.117-1.34,1.117s-0.67-1.341-0.67-2.346
			c0-1.005,0-3.016,0-3.351c0-0.335,0.112-1.564,0.112-1.564v-1.229l-0.223-0.447c0,0-1.341,2.681-1.452,3.24
			c-0.112,0.559-0.559,1.229-0.894,1.899c-0.335,0.67-0.782,1.899-0.782,1.899l-0.335,1.229c-0.782,0.894-1.341,1.117-1.341,1.117
			s-0.447-1.005-0.447-1.676s-0.112-1.788,0-2.234c0.112-0.447,0.112-2.011,0.112-2.011s-0.67,1.341-0.782,2.011
			s-0.112,0.894-0.335,1.676c-0.224,0.782-0.447,1.452-0.447,1.452s0,0.112-0.559,0.112c-0.559,0-0.894-0.112-0.894-0.112
			l-0.335-1.452c0,0-0.894-0.67-1.452-1.117c-0.559-0.447-1.564-1.117-1.564-1.899s0.67-2.905,0.67-2.905s-1.229,2.123-1.341,3.128
			c-0.112,1.005,1.006,2.681,1.564,2.905c0.559,0.223,0.782,0.67,1.341,1.229c0.559,0.559,1.452,1.452,1.676,1.788
			C108.989,170.85,109.995,172.079,109.995,172.079z"/>
		<path style="fill:none;stroke:#263238;stroke-linecap:round;stroke-linejoin:round;stroke-miterlimit:10;" d="M119.49,173.085
			c0,0,0-1.005-0.112-1.787c-0.112-0.782-0.224-3.128-0.224-3.128s-1.564,4.357-2.011,5.474c-0.447,1.117-1.005,1.564-1.787,1.341
			c-0.24-0.069-0.501-0.169-0.747-0.275c-0.62-0.266-1.011-0.886-0.977-1.561c0.025-0.488,0.048-1.06,0.048-1.516
			c0-1.005-0.67-2.681-0.67-2.681s0.559-0.782,1.229-0.335c0.67,0.447,1.564,3.352,1.676,4.245c0.112,0.894,0,1.899,0,1.899"/>
		<path style="fill:none;stroke:#263238;stroke-linecap:round;stroke-linejoin:round;stroke-miterlimit:10;" d="M115.133,162.918
			c0,0-5.027-0.223-9.384,2.793"/>
		<path style="fill:none;stroke:#263238;stroke-linecap:round;stroke-linejoin:round;stroke-miterlimit:10;" d="M104.297,166.493
			c0,0-2.234,1.564-2.681,2.234c-0.447,0.67-0.894,1.452-0.894,1.452s-2.569,1.341-3.91,2.681c-1.341,1.341-2.905,5.027-3.24,9.049
			c-0.335,4.022,0.335,7.373,0.894,8.379c0.559,1.006,1.452,2.681,1.452,2.681s1.341,5.809,5.362,9.161
			c4.022,3.351,9.496,5.474,19.103,4.022c9.608-1.452,12.736-2.905,17.092-7.15c4.357-4.245,6.033-9.384,6.033-14.635
			s-1.787-11.172-2.793-12.959c-1.006-1.787-2.011-3.24-2.346-3.463c-0.335-0.223-3.016-4.245-8.714-6.256
			c-5.697-2.011-9.272-1.452-10.725-0.894c-1.452,0.559-2.346,1.117-2.346,1.117"/>
		<path style="fill:none;stroke:#263238;stroke-linecap:round;stroke-linejoin:round;stroke-miterlimit:10;" d="M110.639,186.602
			c-0.001,0.464,0.007,0.948,0.026,1.453"/>
		<path style="fill:none;stroke:#263238;stroke-linecap:round;stroke-linejoin:round;stroke-miterlimit:10;" d="M113.346,176.548
			c0,0-2.379,1.938-2.677,8.709"/>
		<path style="fill:none;stroke:#263238;stroke-linecap:round;stroke-linejoin:round;stroke-miterlimit:10;" d="M127.426,176.082
			c0.513,0.478,1.002,1.038,1.449,1.695"/>
		<path style="fill:none;stroke:#263238;stroke-linecap:round;stroke-linejoin:round;stroke-miterlimit:10;" d="M119.043,173.42
			c0,0,3.667-0.524,6.991,1.587"/>
		<path style="fill:none;stroke:#263238;stroke-linecap:round;stroke-linejoin:round;stroke-miterlimit:10;" d="M110.441,174.648
			c0,0-5.809-0.67-10.501,3.798"/>
		<path style="fill:none;stroke:#263238;stroke-linecap:round;stroke-linejoin:round;stroke-miterlimit:10;" d="M126.069,165.822
			c0.931-0.345,1.977-0.621,3.141-0.781"/>
		<path style="fill:none;stroke:#263238;stroke-linecap:round;stroke-linejoin:round;stroke-miterlimit:10;" d="M119.937,170.403
			c0,0,1.612-2.579,5.227-4.21"/>
		<path style="fill:none;stroke:#263238;stroke-linecap:round;stroke-linejoin:round;stroke-miterlimit:10;" d="M113.011,168.951
			c0,0,0.67,0.894,1.452,0.67c0.782-0.223-0.223-1.005-0.223-1.005"/>
		<path style="fill:none;stroke:#263238;stroke-linecap:round;stroke-linejoin:round;stroke-miterlimit:10;" d="M109.659,168.839
			c0,0,0.112-0.223,0.559,0.559c0.447,0.782,0.335,1.452,0.67,1.787c0.335,0.335,1.787,1.452,1.787,1.452"/>
		<path style="fill:none;stroke:#263238;stroke-linecap:round;stroke-linejoin:round;stroke-miterlimit:10;" d="M117.144,169.174
			c0,0,0.223,0.112,0.223,0.559c0,0.447-1.005,1.676-1.005,1.676"/>
	</g>
	<g>
		<path style="fill:none;stroke:#263238;stroke-linecap:round;stroke-linejoin:round;stroke-miterlimit:10;" d="M114.247,241.191
			c0,0,0.272-5.183-5.56-8.175c-5.832-2.992-13.955-3.685-18.397-1.434c-4.442,2.251-7.955,6.629-7.438,12.185
			c0.518,5.556,3.756,10.463,8.299,12.606c4.542,2.143,15.099-1.811,19.31-5.62C114.672,246.944,114.247,241.191,114.247,241.191z"
			/>
		<path style="fill:none;stroke:#263238;stroke-linecap:round;stroke-linejoin:round;stroke-miterlimit:10;" d="M128.224,220.26
			c0,0-19.295,2.005-31.897,6.201c-12.602,4.196-20.729,7.606-24.522,12.576c-3.793,4.971-7.218,13.254-5.734,18.3
			c1.483,5.045,4.129,9.673,12.297,12.319c8.168,2.646,19.652,0.82,26.907-2.277c7.255-3.097,20.643-15.613,23.993-18.62
			c3.35-3.007,8.924-11.242,10.601-14.797c1.677-3.555,1.889-7.076-1.502-10.124C134.976,220.789,128.224,220.26,128.224,220.26z"/>
		<path style="fill:none;stroke:#263238;stroke-linecap:round;stroke-linejoin:round;stroke-miterlimit:10;" d="M67.635,261.697
			c0,0,2.34,8.347,12.33,13.783c9.99,5.437,27.112,2.407,34.87-4.315s18.925-18.114,23.676-28.186
			c4.751-10.072,3.257-15.606,1.852-17.234"/>
		<path style="fill:none;stroke:#263238;stroke-linecap:round;stroke-linejoin:round;stroke-miterlimit:10;" d="M118.208,223.75
			c-4.138,0.658-8.498,1.52-12.513,2.301c-7.974,1.55-15.74,3.682-21.437,6.547c-5.698,2.866-10.884,6.696-11.164,7.289"/>
		<path style="fill:none;stroke:#263238;stroke-linecap:round;stroke-linejoin:round;stroke-miterlimit:10;" d="M132.22,241.645
			c2.172-2.207,5.815-6.494,6.21-10.776c0.469-5.09-2.922-8.138-9.174-8.19c-2.234-0.019-4.861,0.209-7.678,0.579"/>
		<path style="fill:none;stroke:#263238;stroke-linecap:round;stroke-linejoin:round;stroke-miterlimit:10;" d="M127.626,246.43
			c1.002-1.068,1.852-1.993,2.494-2.679"/>
		<path style="fill:none;stroke:#263238;stroke-linecap:round;stroke-linejoin:round;stroke-miterlimit:10;" d="M107.048,262.796
			c1.816-0.973,3.533-1.938,5.09-2.802c4.558-2.531,9.949-7.769,13.875-11.862"/>
		<path style="fill:none;stroke:#263238;stroke-linecap:round;stroke-linejoin:round;stroke-miterlimit:10;" d="M72.464,242.246
			c0,0-5.839,5.213-4.684,13.001c1.155,7.788,9.472,12.677,17.514,14.055c5.753,0.986,13.164-2.065,19.67-5.412"/>
	</g>
	<g>
		<path style="fill:none;stroke:#263238;stroke-linecap:round;stroke-linejoin:round;stroke-miterlimit:10;" d="M55.134,103.591
			c0,0-8.025,1.45-9.918,1.374c-1.894-0.076-3.833-0.596-4.025,1.041c-0.192,1.636-0.192,1.636-0.192,1.636
			s-1.495-0.566-2.202,1.303c-0.707,1.868,2.692,6.999,7.404,10.918c4.712,3.919,12.267,11.049,16.959,13.892
			c4.692,2.843,17.58,9.428,17.58,9.428s2.889,3.656,3.959,5.343c1.071,1.687,4.354,6.56,4.333,5.484
			c-0.02-1.076,0.156-5.495,0.156-5.495l-2.257-3.631c0,0,14.347,3.292,16.918,3.837c2.57,0.545,6.03,1,6.03,1l5.55,5.09
			c0,0,5.222-2.51,7.984-3.601c2.762-1.091,10.62-1.536,10.62-1.536l0.424-1.121l7.358,2.57c0,0,4.495,6.186,7.687,10.171
			c3.192,3.984,7.671,7.388,7.671,7.388s-2.051-10.388-2.768-13.009c-0.717-2.621-1.48-5.686-1.48-5.686s10.024-5.606,11.388-8.081
			c1.364-2.475,4.368-6.464,4.368-6.464s-13.433,3.889-16.17,4.349c-2.737,0.46-5.363,2.884-8.307,2.197
			c-2.944-0.687-11.979-5.6-14.59-8.297c-2.611-2.697-17.964-14.059-20.11-15.725c-2.146-1.667-3.313-2.535-3.313-2.535l3.626-0.551
			c0,0-3.192-3.985-5.076-7.474c-1.884-3.49-2.879-7.07-2.879-7.07l-0.136-1.333l-12.438,7.47c0,0-13.06-3.873-21.079-4.13
			S55.134,103.591,55.134,103.591z"/>
		<path style="fill:#263238;" d="M48.948,108.086c0.234-0.619-0.078-1.311-0.697-1.545c-0.619-0.234-1.311,0.078-1.545,0.697
			c-0.234,0.619,0.078,1.311,0.697,1.545C48.022,109.017,48.714,108.705,48.948,108.086z"/>
		<path style="fill:none;stroke:#263238;stroke-linecap:round;stroke-linejoin:round;stroke-miterlimit:10;" d="M64.199,108.055
			c0.255,0.437,0.389,1.035,0.293,1.853c-0.384,3.272-1.782,9.792-3.939,11.54c-2.156,1.748-5.944,1.596-5.944,1.596"/>
		<path style="fill:none;stroke:#263238;stroke-linecap:round;stroke-linejoin:round;stroke-miterlimit:10;" d="M61.578,106.884
			c0,0,1.043-0.078,1.888,0.436"/>
		<path style="fill:none;stroke:#263238;stroke-linecap:round;stroke-linejoin:round;stroke-miterlimit:10;" d="M59.68,124.322
			c0,0,4.767,0.949,9.954,2.484c5.187,1.535,3.454,2.161,1.49,2.273c-1.964,0.111-5.126,1.692-6.924,0.798
			c-1.798-0.894-4.267-3.964-4.267-3.964"/>
		<path style="fill:none;stroke:#263238;stroke-linecap:round;stroke-linejoin:round;stroke-miterlimit:10;" d="M54.453,111.815
			c0.028-0.98-0.087-1.679-0.087-1.679"/>
		<path style="fill:none;stroke:#263238;stroke-linecap:round;stroke-linejoin:round;stroke-miterlimit:10;" d="M40.999,107.642
			c0,0-0.778,2.055,1.505,5.055c2.283,3,4.525,3.848,4.525,3.848s2.939,2.394,5.495,0.156c0.723-0.633,1.184-1.433,1.474-2.255"/>
		<path style="fill:none;stroke:#263238;stroke-linecap:round;stroke-linejoin:round;stroke-miterlimit:10;" d="M46.979,117.808
			c0,0,3.894,3.823,6.631,3.363c2.737-0.46,4.227-6.091,3.813-8.383"/>
		
			<line style="fill:none;stroke:#263238;stroke-linecap:round;stroke-linejoin:round;stroke-miterlimit:10;" x1="95.459" y1="105.572" x2="92.387" y2="107.494"/>
		
			<line style="fill:none;stroke:#263238;stroke-linecap:round;stroke-linejoin:round;stroke-miterlimit:10;" x1="102.288" y1="101.299" x2="96.622" y2="104.844"/>
		<path style="fill:none;stroke:#263238;stroke-linecap:round;stroke-linejoin:round;stroke-miterlimit:10;" d="M111.89,149.486
			c0,0,18.009-1.303,19.692-1.236"/>
		
			<line style="fill:none;stroke:#263238;stroke-linecap:round;stroke-linejoin:round;stroke-miterlimit:10;" x1="97.298" y1="107.191" x2="94.867" y2="108.781"/>
		
			<line style="fill:none;stroke:#263238;stroke-linecap:round;stroke-linejoin:round;stroke-miterlimit:10;" x1="102.983" y1="103.475" x2="98.884" y2="106.154"/>
		
			<line style="fill:none;stroke:#263238;stroke-linecap:round;stroke-linejoin:round;stroke-miterlimit:10;" x1="98.59" y1="109.47" x2="97.231" y2="110.373"/>
		
			<line style="fill:none;stroke:#263238;stroke-linecap:round;stroke-linejoin:round;stroke-miterlimit:10;" x1="103.758" y1="106.037" x2="100.219" y2="108.388"/>
		
			<line style="fill:none;stroke:#263238;stroke-linecap:round;stroke-linejoin:round;stroke-miterlimit:10;" x1="105.108" y1="108.467" x2="100.169" y2="111.834"/>
		
			<line style="fill:none;stroke:#263238;stroke-linecap:round;stroke-linejoin:round;stroke-miterlimit:10;" x1="103.717" y1="112.747" x2="102.686" y2="113.484"/>
		
			<line style="fill:none;stroke:#263238;stroke-linecap:round;stroke-linejoin:round;stroke-miterlimit:10;" x1="106.515" y1="110.744" x2="104.416" y2="112.246"/>
		
			<line style="fill:none;stroke:#263238;stroke-linecap:round;stroke-linejoin:round;stroke-miterlimit:10;" x1="107.732" y1="112.601" x2="104.823" y2="114.293"/>
		
			<line style="fill:none;stroke:#263238;stroke-linecap:round;stroke-linejoin:round;stroke-miterlimit:10;" x1="113.765" y1="151.233" x2="112.837" y2="150.309"/>
		
			<line style="fill:none;stroke:#263238;stroke-linecap:round;stroke-linejoin:round;stroke-miterlimit:10;" x1="116.513" y1="153.969" x2="114.646" y2="152.11"/>
		
			<line style="fill:none;stroke:#263238;stroke-linecap:round;stroke-linejoin:round;stroke-miterlimit:10;" x1="118.56" y1="153.172" x2="115.742" y2="150.012"/>
		
			<line style="fill:none;stroke:#263238;stroke-linecap:round;stroke-linejoin:round;stroke-miterlimit:10;" x1="120.338" y1="152.623" x2="118.531" y2="150.02"/>
		
			<line style="fill:none;stroke:#263238;stroke-linecap:round;stroke-linejoin:round;stroke-miterlimit:10;" x1="122.442" y1="151.674" x2="120.672" y2="149.434"/>
		
			<line style="fill:none;stroke:#263238;stroke-linecap:round;stroke-linejoin:round;stroke-miterlimit:10;" x1="124.336" y1="150.82" x2="123.214" y2="149.174"/>
		
			<line style="fill:none;stroke:#263238;stroke-linecap:round;stroke-linejoin:round;stroke-miterlimit:10;" x1="127.299" y1="150.37" x2="126.519" y2="149.203"/>
		
			<line style="fill:none;stroke:#263238;stroke-linecap:round;stroke-linejoin:round;stroke-miterlimit:10;" x1="167.651" y1="135.969" x2="151.584" y2="142.456"/>
		
			<line style="fill:none;stroke:#263238;stroke-linecap:round;stroke-linejoin:round;stroke-miterlimit:10;" x1="157.943" y1="141.702" x2="152.67" y2="143.739"/>
		
			<line style="fill:none;stroke:#263238;stroke-linecap:round;stroke-linejoin:round;stroke-miterlimit:10;" x1="166.364" y1="138.449" x2="159.472" y2="141.111"/>
		
			<line style="fill:none;stroke:#263238;stroke-linecap:round;stroke-linejoin:round;stroke-miterlimit:10;" x1="163.983" y1="142.435" x2="153.524" y2="145.633"/>
		
			<line style="fill:none;stroke:#263238;stroke-linecap:round;stroke-linejoin:round;stroke-miterlimit:10;" x1="153.674" y1="147.322" x2="152.468" y2="147.502"/>
		
			<line style="fill:none;stroke:#263238;stroke-linecap:round;stroke-linejoin:round;stroke-miterlimit:10;" x1="158.756" y1="146.565" x2="155.634" y2="147.03"/>
		
			<line style="fill:none;stroke:#263238;stroke-linecap:round;stroke-linejoin:round;stroke-miterlimit:10;" x1="153.446" y1="152.758" x2="150.759" y2="150.171"/>
		
			<line style="fill:none;stroke:#263238;stroke-linecap:round;stroke-linejoin:round;stroke-miterlimit:10;" x1="151.922" y1="154.167" x2="149.666" y2="151.678"/>
		
			<line style="fill:none;stroke:#263238;stroke-linecap:round;stroke-linejoin:round;stroke-miterlimit:10;" x1="154.96" y1="157.52" x2="152.607" y2="154.923"/>
		
			<line style="fill:none;stroke:#263238;stroke-linecap:round;stroke-linejoin:round;stroke-miterlimit:10;" x1="151.66" y1="157.595" x2="148.115" y2="153.01"/>
		
			<line style="fill:none;stroke:#263238;stroke-linecap:round;stroke-linejoin:round;stroke-miterlimit:10;" x1="156.318" y1="163.618" x2="152.772" y2="159.033"/>
		
			<line style="fill:none;stroke:#263238;stroke-linecap:round;stroke-linejoin:round;stroke-miterlimit:10;" x1="147.305" y1="155.318" x2="145.878" y2="153.386"/>
		
			<line style="fill:none;stroke:#263238;stroke-linecap:round;stroke-linejoin:round;stroke-miterlimit:10;" x1="157.174" y1="168.684" x2="148.541" y2="156.991"/>
		
			<line style="fill:none;stroke:#263238;stroke-linecap:round;stroke-linejoin:round;stroke-miterlimit:10;" x1="63.534" y1="128.174" x2="62.354" y2="127.37"/>
		
			<line style="fill:none;stroke:#263238;stroke-linecap:round;stroke-linejoin:round;stroke-miterlimit:10;" x1="66.377" y1="130.113" x2="64.515" y2="128.843"/>
		
			<line style="fill:none;stroke:#263238;stroke-linecap:round;stroke-linejoin:round;stroke-miterlimit:10;" x1="68.003" y1="129.507" x2="64.438" y2="126.936"/>
		
			<line style="fill:none;stroke:#263238;stroke-linecap:round;stroke-linejoin:round;stroke-miterlimit:10;" x1="70.355" y1="128.826" x2="67.322" y2="127.155"/>
		
			<line style="fill:none;stroke:#263238;stroke-linecap:round;stroke-linejoin:round;stroke-miterlimit:10;" x1="88.951" y1="152.092" x2="83.261" y2="144.529"/>
		
			<line style="fill:none;stroke:#263238;stroke-linecap:round;stroke-linejoin:round;stroke-miterlimit:10;" x1="88.786" y1="149.761" x2="84.961" y2="144.649"/>
	</g>
</g>
<g id="Scale">
	<g>
		<g>
			<path style="fill:#FFFFFF;stroke:#263238;stroke-linecap:round;stroke-linejoin:round;stroke-miterlimit:10;" d="
				M367.835,322.711H149.62c-10.704,0-19.382-8.677-19.382-19.382V106.382c0-10.704,8.678-19.382,19.382-19.382h218.215
				c10.704,0,19.382,8.677,19.382,19.382v196.948C387.217,314.034,378.539,322.711,367.835,322.711z"/>
			<path style="fill:none;stroke:#263238;stroke-linecap:round;stroke-linejoin:round;stroke-miterlimit:10;" d="M318.383,151.332
				c-7.658,2.951-25.266,2.211-25.266,2.211h-68.773c0,0-17.608,0.74-25.266-2.211c-7.658-2.96-16.083-19.195,10.716-36.179
				c22.895-14.505,40.752-15.005,45.468-14.835l-0.009-0.196c0,0,25.605-1.952,52.404,15.031
				C334.457,132.137,326.041,148.372,318.383,151.332z"/>
			<path style="fill:none;stroke:#263238;stroke-linecap:round;stroke-linejoin:round;stroke-miterlimit:10;" d="M308.14,153.24
				c-7.4,0.62-15.02,0.3-15.02,0.3h-68.78c0,0-6.68,0.28-13.61-0.19c9.15-17.27,27.21-29.11,48.06-29.35
				c0.22-0.01,0.45-0.01,0.67-0.01C280.56,123.99,298.87,135.84,308.14,153.24z"/>
			<path style="fill:#92E3A9;stroke:#263238;stroke-linecap:round;stroke-linejoin:round;stroke-miterlimit:10;" d="M258.79,124
				v29.54h-34.45c0,0-6.68,0.28-13.61-0.19C219.88,136.08,237.94,124.24,258.79,124z"/>
			<g>
				
					<line style="fill:none;stroke:#263238;stroke-linecap:round;stroke-linejoin:round;stroke-miterlimit:10;" x1="258.73" y1="104.946" x2="258.73" y2="118.09"/>
				
					<line style="fill:none;stroke:#263238;stroke-linecap:round;stroke-linejoin:round;stroke-miterlimit:10;" x1="221.679" y1="115.539" x2="228.352" y2="126.922"/>
				<g>
					
						<line style="fill:none;stroke:#263238;stroke-linecap:round;stroke-linejoin:round;stroke-miterlimit:10;" x1="194.971" y1="141.802" x2="206.529" y2="148.374"/>
					
						<line style="fill:none;stroke:#263238;stroke-linecap:round;stroke-linejoin:round;stroke-miterlimit:10;" x1="250.68" y1="104.6" x2="251.499" y2="111.145"/>
					
						<line style="fill:none;stroke:#263238;stroke-linecap:round;stroke-linejoin:round;stroke-miterlimit:10;" x1="242.977" y1="105.989" x2="244.486" y2="112.414"/>
					
						<line style="fill:none;stroke:#263238;stroke-linecap:round;stroke-linejoin:round;stroke-miterlimit:10;" x1="235.464" y1="108.164" x2="237.647" y2="114.398"/>
					
						<line style="fill:none;stroke:#263238;stroke-linecap:round;stroke-linejoin:round;stroke-miterlimit:10;" x1="228.223" y1="111.1" x2="231.055" y2="117.076"/>
					
						<line style="fill:none;stroke:#263238;stroke-linecap:round;stroke-linejoin:round;stroke-miterlimit:10;" x1="214.87" y1="119.12" x2="218.902" y2="124.385"/>
					
						<line style="fill:none;stroke:#263238;stroke-linecap:round;stroke-linejoin:round;stroke-miterlimit:10;" x1="208.904" y1="124.116" x2="213.473" y2="128.937"/>
					
						<line style="fill:none;stroke:#263238;stroke-linecap:round;stroke-linejoin:round;stroke-miterlimit:10;" x1="203.502" y1="129.699" x2="208.557" y2="134.023"/>
					
						<line style="fill:none;stroke:#263238;stroke-linecap:round;stroke-linejoin:round;stroke-miterlimit:10;" x1="198.721" y1="135.807" x2="204.208" y2="139.588"/>
				</g>
				
					<line style="fill:none;stroke:#263238;stroke-linecap:round;stroke-linejoin:round;stroke-miterlimit:10;" x1="295.508" y1="115.539" x2="288.835" y2="126.922"/>
				<g>
					
						<line style="fill:none;stroke:#263238;stroke-linecap:round;stroke-linejoin:round;stroke-miterlimit:10;" x1="322.216" y1="141.802" x2="310.658" y2="148.374"/>
					
						<line style="fill:none;stroke:#263238;stroke-linecap:round;stroke-linejoin:round;stroke-miterlimit:10;" x1="266.507" y1="104.6" x2="265.689" y2="111.145"/>
					
						<line style="fill:none;stroke:#263238;stroke-linecap:round;stroke-linejoin:round;stroke-miterlimit:10;" x1="274.21" y1="105.989" x2="272.701" y2="112.414"/>
					
						<line style="fill:none;stroke:#263238;stroke-linecap:round;stroke-linejoin:round;stroke-miterlimit:10;" x1="281.723" y1="108.164" x2="279.54" y2="114.398"/>
					
						<line style="fill:none;stroke:#263238;stroke-linecap:round;stroke-linejoin:round;stroke-miterlimit:10;" x1="288.964" y1="111.1" x2="286.132" y2="117.076"/>
					
						<line style="fill:none;stroke:#263238;stroke-linecap:round;stroke-linejoin:round;stroke-miterlimit:10;" x1="302.317" y1="119.12" x2="298.285" y2="124.385"/>
					
						<line style="fill:none;stroke:#263238;stroke-linecap:round;stroke-linejoin:round;stroke-miterlimit:10;" x1="308.283" y1="124.116" x2="303.714" y2="128.937"/>
					
						<line style="fill:none;stroke:#263238;stroke-linecap:round;stroke-linejoin:round;stroke-miterlimit:10;" x1="313.685" y1="129.699" x2="308.63" y2="134.023"/>
					
						<line style="fill:none;stroke:#263238;stroke-linecap:round;stroke-linejoin:round;stroke-miterlimit:10;" x1="318.466" y1="135.807" x2="312.979" y2="139.588"/>
				</g>
			</g>
			<path style="fill:#FFFFFF;stroke:#263238;stroke-linecap:round;stroke-linejoin:round;stroke-miterlimit:10;" d="M364.682,91.821
				h-1.842l-17.298,45.111c-5.305,13.835-18.59,22.969-33.407,22.969H208.252c-14.494,0-27.555-8.744-33.079-22.143l-18.935-45.936
				h-3.464c-9.543,0-17.28,7.736-17.28,17.28v191.511c0,9.543,7.736,17.28,17.28,17.28h211.908c9.543,0,17.28-7.736,17.28-17.28
				V109.1C381.961,99.557,374.225,91.821,364.682,91.821z"/>
			<polygon style="fill:#263238;stroke:#263238;stroke-linecap:round;stroke-linejoin:round;stroke-miterlimit:10;" points="
				261.327,153.543 252.742,153.543 238.281,122.08 			"/>
		</g>
	</g>
</g>
<g id="Character">
	<g>
		<g>
			<path style="fill:#FFFFFF;stroke:#263238;stroke-linecap:round;stroke-linejoin:round;stroke-miterlimit:10;" d="
				M257.753,208.546c0,0-2.063,11.233-5.273,16.048c-3.209,4.814-6.19,7.107-10.546,7.795c-4.356,0.688-14.672,0.229-17.882,3.897
				s-14.179,37.662-14.179,37.662s-2.785,7.271-0.722,12.086c2.063,4.814,6.419,7.794,10.087,4.356
				c3.668-3.439,12.609-32.095,12.609-32.095l8.024,23.154c0,0-10.087,15.36-10.775,21.549c0,0-5.961,23.154-4.127,37.826
				s14.214,25.447,13.755,38.514c-0.459,13.067-7.565,17.194-8.253,27.51c-0.688,10.316,2.063,37.139,2.063,39.89
				c0,2.751,0.229,5.273,3.21,6.19s5.502-0.229,5.502-0.229s2.751-16.506,8.024-29.115c5.273-12.609,8.024-24.301,10.316-36.68
				c2.292-12.38,3.668-36.68,3.668-40.348s-0.229-9.629-0.229-9.629l3.21-1.605c0,0,0.458,33.012,1.834,44.245
				c1.376,11.233,3.668,22.466,3.668,25.217s-0.458,10.546,1.146,18.111c1.605,7.565,2.063,24.759,2.063,24.759
				s-0.688,3.21,0.458,4.126c1.146,0.917,6.878,0.458,8.024,0.229c1.146-0.229,2.063-4.356,2.063-5.273
				c0-0.917,1.834-15.13,4.585-25.905c2.751-10.775,3.897-15.818,3.897-26.135c0-10.316-3.897-12.838-1.376-23.384
				c2.522-10.546,10.775-21.32,10.775-37.139c0-15.818-6.419-29.803-9.629-34.158c0,0,2.522-7.565-8.482-22.925l2.98-24.53
				c0,0,25.905,10.775,30.72,11.921c4.814,1.146,9.17-3.897,8.712-8.024c-0.458-4.127-11.233-9.858-18.34-13.755
				c-7.107-3.897-12.289-10.516-21.001-13.038c-8.711-2.522-14.304,0.2-15.221,0.2s-2.98-13.526-2.98-13.526L257.753,208.546z"/>
			<path style="fill:#263238;stroke:#263238;stroke-linecap:round;stroke-linejoin:round;stroke-miterlimit:10;" d="
				M270.132,216.341l-12.38-7.795c0,0-0.132,0.717-0.38,1.864c1.909,2.524,9.274,12.003,14.336,14.895
				C270.901,221.378,270.132,216.341,270.132,216.341z"/>
			<path style="fill:none;stroke:#263238;stroke-linecap:round;stroke-linejoin:round;stroke-miterlimit:10;" d="M265.263,289.744
				c0,0.507-0.352,0.918-0.787,0.918s-0.787-0.411-0.787-0.918c0-0.507,0.352-0.918,0.787-0.918S265.263,289.237,265.263,289.744z"
				/>
			<path style="fill:#263238;stroke:#263238;stroke-linecap:round;stroke-linejoin:round;stroke-miterlimit:10;" d="
				M303.374,334.175c0-15.54-6.193-29.303-9.454-33.912c-4.341,3.058-14.695,8.803-30.894,8.466
				c-17.601-0.367-29.621-4.983-33.733-6.818c-0.089,0.385-0.159,0.751-0.196,1.086c0,0-5.961,23.154-4.127,37.826
				s14.214,25.447,13.755,38.514c-0.459,13.067-7.565,17.194-8.253,27.51c-0.226,3.386-0.08,8.552,0.216,14.06
				c6.537,3.334,14.773,2.56,18.919,1.85c5.05-12.294,7.738-23.746,9.98-35.855c2.292-12.38,3.668-36.68,3.668-40.348
				s-0.229-9.629-0.229-9.629l3.21-1.605c0,0,0.458,33.012,1.834,44.245c1.376,11.233,3.668,22.466,3.668,25.217
				s-0.458,10.546,1.146,18.111c0.049,0.233,0.098,0.475,0.145,0.726c1.642,0.016,3.556,0.009,5.816-0.038
				c4.371-0.091,8.04-0.69,10.893-1.377c0.112-0.463,0.225-0.922,0.34-1.374c2.751-10.775,3.897-15.818,3.897-26.135
				c0-10.316-3.897-12.838-1.376-23.384C295.12,360.768,303.374,349.994,303.374,334.175z"/>
		</g>
		<path style="fill:#263238;stroke:#263238;stroke-linecap:round;stroke-linejoin:round;stroke-miterlimit:10;" d="M284.346,174.617
			c0,0-17.882-9.858-26.364-9.17c-8.482,0.688-21.32,18.34-22.925,26.822c-1.605,8.482,6.648,13.067,7.107,13.755
			c0.459,0.688-6.878,0.229-6.19,5.731c0.688,5.502,9.399,6.419,14.443,5.502c5.044-0.917,8.482-7.336,8.482-8.253
			c0-0.917-2.293-7.107-2.293-7.107s4.814,0.458,5.502-3.668c0.688-4.126,4.585-13.297,9.858-13.526
			c5.273-0.229,9.399,0.459,9.858,1.605c0.458,1.146,0.917,5.502,0.917,5.502s5.961,1.375,10.775-2.751
			c4.814-4.127,6.648-15.36,0.229-17.652C287.326,169.115,284.346,174.617,284.346,174.617z"/>
		<g>
			<path style="fill:#FFFFFF;stroke:#263238;stroke-linecap:round;stroke-linejoin:round;stroke-miterlimit:10;" d="
				M254.442,198.093l-9.217,5.231c0,0,3.488,4.235,4.982,4.733c1.495,0.498,3.986-0.249,3.986-0.249s4.235,4.982,7.473,7.224
				c3.238,2.242,10.961,6.477,15.196,4.982c4.235-1.495,10.463-12.705,9.964-16.441c-0.498-3.737-2.74-9.715-2.491-12.705
				c0.249-2.989,0.747-7.722,0.747-7.722s-10.214-4.982-18.434-0.249C258.428,187.631,258.926,196.35,254.442,198.093z"/>
			<path style="fill:none;stroke:#263238;stroke-linecap:round;stroke-linejoin:round;stroke-miterlimit:10;" d="M276.862,193.609
				l0.249,2.989c0,0,6.477,0.747,3.986,2.989c-2.491,2.242-5.979,2.74-5.979,2.74"/>
			<path style="fill:#263238;stroke:#263238;stroke-linecap:round;stroke-linejoin:round;stroke-miterlimit:10;" d="
				M280.599,206.563c0,0-4.484,1.495-6.975,1.495c-2.491,0-4.733-0.498-4.733-0.498s2.242,2.242,4.235,3.986
				c1.993,1.744,4.484,1.993,4.484,1.993l-0.249-4.235L280.599,206.563z"/>
			<path style="fill:none;stroke:#263238;stroke-linecap:round;stroke-linejoin:round;stroke-miterlimit:10;" d="M264.905,191.616
				c0,0,2.491-2.491,5.48-2.242"/>
			<path style="fill:none;stroke:#263238;stroke-linecap:round;stroke-linejoin:round;stroke-miterlimit:10;" d="M277.859,188.627
				c0,0,2.491-0.996,4.982,0.996"/>
			<ellipse style="fill:#263238;" cx="269.472" cy="195.751" rx="1.08" ry="1.893"/>
			<ellipse style="fill:#263238;" cx="280.632" cy="194.604" rx="1.08" ry="1.893"/>
		</g>
		<g>
			<path style="fill:#92E3A9;stroke:#263238;stroke-linecap:round;stroke-linejoin:round;stroke-miterlimit:10;" d="M276.964,228.92
				c-1.36,0.293-2.425,0.602-3.102,0.785c1.233,3.156,3.622,9.398,4.294,12.083c0.917,3.668,0.917,5.273,0.917,5.273
				s-1.146,2.751-11.921,5.502c-10.775,2.751-20.632,0-22.925-1.605c-2.293-1.605-3.439-2.751-3.439-2.751l4.94-16.995
				c-0.96,0.475-1.982,0.819-3.092,1.047c-1.766,5.1-4.404,13.017-5.975,19.157c-1.63,6.37-1.44,13.405-1.102,17.59l4.312,12.442
				c0,0-0.801,1.22-1.967,3.11c6.216,1.017,17.485,2.621,26.726,2.621c10.078,0,19.007-4.453,22.906-6.724
				c-0.687-1.078-1.437-2.195-2.274-3.363l2.98-24.53L276.964,228.92z"/>
			
				<line style="fill:none;stroke:#263238;stroke-linecap:round;stroke-linejoin:round;stroke-miterlimit:10;" x1="260.08" y1="274.635" x2="272.425" y2="268.38"/>
			
				<line style="fill:none;stroke:#263238;stroke-linecap:round;stroke-linejoin:round;stroke-miterlimit:10;" x1="255.231" y1="277.092" x2="257.447" y2="275.969"/>
			
				<line style="fill:none;stroke:#263238;stroke-linecap:round;stroke-linejoin:round;stroke-miterlimit:10;" x1="268.757" y1="272.507" x2="258.67" y2="278.009"/>
		</g>
		<g>
			<path style="fill:#FFFFFF;stroke:#263238;stroke-linecap:round;stroke-linejoin:round;stroke-miterlimit:10;" d="
				M239.871,451.323c0,0-1.146-3.21-3.439-3.439c-2.293-0.229-5.731-0.917-6.878,1.146c-1.146,2.063-2.063,6.19-2.063,6.19
				s-6.419,4.585-9.399,8.024c-2.98,3.439-2.063,5.731,0.458,7.565c2.522,1.834,8.712,2.063,11.462,1.146
				c2.751-0.917,5.502-4.814,5.502-4.814s6.19,0,7.107-1.834c0.917-1.834,0.229-8.941,0.229-8.941s1.146-2.293,0.917-3.897
				c-0.229-1.605-1.375-2.522-1.375-2.522S241.017,451.323,239.871,451.323z"/>
			<path style="fill:#FFFFFF;stroke:#263238;stroke-linecap:round;stroke-linejoin:round;stroke-miterlimit:10;" d="
				M226.804,469.663c-3.681,0.849-7.882-0.836-10.56-2.25c0.098,1.327,0.974,2.427,2.307,3.396
				c2.522,1.834,8.712,2.063,11.462,1.146c2.751-0.917,5.502-4.814,5.502-4.814s6.19,0,7.107-1.834
				c0.397-0.795,0.493-2.58,0.474-4.347c-1.534,1.152-4.705,3.384-6.893,3.889C233.223,465.536,232.764,468.287,226.804,469.663z"/>
		</g>
		<g>
			<path style="fill:#FFFFFF;stroke:#263238;stroke-linecap:round;stroke-linejoin:round;stroke-miterlimit:10;" d="
				M274.947,447.655c0,0-3.21,2.751-3.21,5.273c0,2.522,0.229,5.731,0.229,5.731s-1.834,6.19-0.458,7.565
				c1.375,1.376,4.356,2.063,6.419,2.063c2.063,0,5.731,0.458,5.731,0.458s5.502,2.98,10.316,3.897
				c4.814,0.917,9.858-0.229,10.316-3.21c0.458-2.98-2.98-5.96-5.044-7.107c-2.063-1.146-5.273-3.439-6.19-5.044
				c-0.917-1.605-4.814-5.043-4.814-5.043s0.917-4.814-1.834-5.043c-2.751-0.229-4.814,3.668-4.814,3.668s-2.751-0.229-4.356-0.229
				c-1.605,0-2.522,0-2.522,0L274.947,447.655z"/>
			<path style="fill:#FFFFFF;stroke:#263238;stroke-linecap:round;stroke-linejoin:round;stroke-miterlimit:10;" d="
				M304.291,469.433c0.086-0.561,0.034-1.122-0.121-1.671c-1.181,0.962-2.745,2.065-4.464,2.817
				c-3.668,1.605-8.482-0.917-11.692-2.063c-3.21-1.146-4.585-2.751-9.629-2.98c-3.578-0.163-6.11-1.821-7.284-2.773
				c-0.18,1.459-0.171,2.884,0.406,3.461c1.375,1.376,4.356,2.063,6.419,2.063c2.063,0,5.731,0.458,5.731,0.458
				s5.502,2.98,10.316,3.897C298.788,473.56,303.832,472.414,304.291,469.433z"/>
		</g>
		
			<ellipse transform="matrix(0.7071 -0.7071 0.7071 0.7071 -115.133 204.2437)" style="fill:#263238;stroke:#263238;stroke-linecap:round;stroke-linejoin:round;stroke-miterlimit:10;" cx="188.977" cy="241.1" rx="8.941" ry="8.941"/>
		<g>
			<path style="fill:#FFFFFF;stroke:#263238;stroke-linecap:round;stroke-linejoin:round;stroke-miterlimit:10;" d="
				M197.001,239.495l2.293-3.439c0,0,2.293,0.917,4.127,1.376c1.834,0.458,3.668,0.229,2.98,1.376
				c-0.688,1.146-3.668,2.063-4.814,2.063C200.44,240.87,197.001,239.495,197.001,239.495z"/>
			<path style="fill:#FFFFFF;stroke:#263238;stroke-linecap:round;stroke-linejoin:round;stroke-miterlimit:10;" d="
				M222.677,284.199c0,0,0.229,1.605-0.458,4.585c-0.688,2.98-4.126,7.107-5.731,7.565c-1.605,0.458-5.96-0.458-8.482-5.502
				c-2.522-5.044-8.253-22.008-8.253-22.008s-7.336-19.028-7.336-20.403s3.439-10.087,3.439-10.087s-0.229-1.146,1.146-0.917
				c1.376,0.229,3.668,1.834,3.668,1.834l6.19,2.522c0,0,1.834,1.376,1.605,3.21c-0.229,1.834-1.146,4.126-1.146,4.126
				s-0.229,3.21-0.688,5.044c-0.458,1.834-2.751,6.878-2.751,6.878s3.668,7.794,6.878,12.15c3.209,4.356,9.858,8.712,9.858,8.712"/>
			<path style="fill:none;stroke:#263238;stroke-linecap:round;stroke-linejoin:round;stroke-miterlimit:10;" d="M199.752,239.036
				c0,0-3.668,5.043-3.668,8.711"/>
			<path style="fill:none;stroke:#263238;stroke-linecap:round;stroke-linejoin:round;stroke-miterlimit:10;" d="M203.42,241.1
				c0,0-3.21,4.356-3.439,7.107"/>
			<path style="fill:none;stroke:#263238;stroke-linecap:round;stroke-linejoin:round;stroke-miterlimit:10;" d="M207.317,242.704
				c0,0-2.751,3.439-4.126,6.19"/>
		</g>
		
			<ellipse transform="matrix(0.987 -0.1606 0.1606 0.987 -36.7785 37.7894)" style="fill:#263238;stroke:#263238;stroke-linecap:round;stroke-linejoin:round;stroke-miterlimit:10;" cx="215.341" cy="246.372" rx="8.941" ry="8.941"/>
		<g>
			<g>
				
					<ellipse style="fill:#92E3A9;stroke:#263238;stroke-linecap:round;stroke-linejoin:round;stroke-miterlimit:10;" cx="298.101" cy="208.622" rx="8.635" ry="8.253"/>
				<polygon style="fill:#8C8C8C;stroke:#263238;stroke-linecap:round;stroke-linejoin:round;stroke-miterlimit:10;" points="
					299.247,200.675 300.317,195.784 301.998,195.784 300.775,200.675 				"/>
				<path style="fill:#92E3A9;stroke:#263238;stroke-linecap:round;stroke-linejoin:round;stroke-miterlimit:10;" d="
					M299.553,199.452c0,0-0.611-1.528-2.598-2.598c-1.987-1.07-4.585-1.528-4.585-1.528s2.14,2.751,3.515,3.515
					C297.26,199.605,299.553,199.452,299.553,199.452z"/>
			</g>
			<g>
				<path style="fill:#FFFFFF;stroke:#263238;stroke-linecap:round;stroke-linejoin:round;stroke-miterlimit:10;" d="
					M300.852,212.443c0,0-7.107,9.858-6.419,12.15c0.688,2.292,16.506,31.407,18.569,35.075c2.063,3.668,5.731,5.96,9.399,5.96
					c3.668,0,8.024-5.043,7.565-9.17c-0.458-4.127-11.462-15.131-15.13-19.028c-3.668-3.897-13.297-13.526-13.297-13.526
					s9.17-10.316,10.087-12.38c0.917-2.063,1.605-3.439,0.917-5.044c-0.688-1.605-5.273-7.565-5.273-7.565s-1.375-0.688-2.522,0.459
					c-1.146,1.146-1.605,2.522-1.605,2.522s-2.063,1.605-2.063,3.21C301.081,206.712,300.852,212.443,300.852,212.443z"/>
				<path style="fill:none;stroke:#263238;stroke-linecap:round;stroke-linejoin:round;stroke-miterlimit:10;" d="M303.144,201.898
					c0,0,1.011,9.394,1.011,10.732c0,1.338-0.765,2.581-0.765,2.581"/>
				<path style="fill:none;stroke:#263238;stroke-linecap:round;stroke-linejoin:round;stroke-miterlimit:10;" d="M304.825,198.961
					c0,0,2.485,10.515,2.581,12.426c0.096,1.912,0.096,2.581,0.096,2.581"/>
				<path style="fill:none;stroke:#263238;stroke-linecap:round;stroke-linejoin:round;stroke-miterlimit:10;" d="M307.597,199.152
					c0,0,3.059,9.463,3.25,10.61c0.191,1.147-1.434,2.677-1.625,3.059"/>
			</g>
		</g>
	</g>
</g>
</svg>
